<!DOCTYPE svg PUBLIC "-//W3C//DTD SVG 1.1//EN" "http://www.w3.org/Graphics/SVG/1.1/DTD/svg11.dtd">
<svg style="stroke-linecap:square;" xmlns="http://www.w3.org/2000/svg" xmlns:xlink="http://www.w3.org/1999/xlink" width="779" height="594">
<defs><clipPath id="clip-0"><path d="M 0 0 L 779 0 L 779 594 L 0 594 L 0 0 M 0 0"/></clipPath>
<clipPath id="clip-1"><path d="M 324.5 279.5 L 324.5 1058.5 L -269.5 1058.5 L -269.5 279.5 L 324.5 279.5 M 324.5 279.5"/></clipPath>
<clipPath id="clip-2"><path d="M 74 62 L 74 542 L 769 542 L 769 62 M 74 62"/></clipPath>
</defs>
<rect x="0" y="0" width="779" height="594" style="fill: rgb(255,255,255);fill-opacity: 1" transform="matrix(1,0,0,1,0,0)" clip-path="url(#clip-0)"/><g transform="matrix(1,0,0,1,0,0)"><text x="7" y="26.24" style="fill: rgb(75,75,109); font-family: Lucida Sans; font-size: 16px; font-weight: bold; " text-rendering="auto" clip-path="url(#clip-0)">Plan factoriel de l&apos;analyse des correspondances de VOEUX/text@loc/@frlemma ≥20 ≤61&apos;197 </text></g><g transform="matrix(1,0,0,1,0,0)"><text x="368.5" y="46.24" style="fill: rgb(75,75,109); font-family: Lucida Sans; font-size: 16px; font-weight: bold; " text-rendering="auto" clip-path="url(#clip-0)">/200</text></g><g style="stroke-width: 1.0;stroke: rgb(128,128,128);stroke-opacity: 1; fill: none" transform="matrix(1,0,0,1,0,0)" clip-path="url(#clip-0)"><path d=""/></g><rect x="74" y="62" width="695" height="480" style="fill: rgb(255,255,255);fill-opacity: 1" transform="matrix(1,0,0,1,0,0)" clip-path="url(#clip-0)"/><line x1="74" y1="542" x2="769" y2="542" style="stroke-width: 0.5;stroke: rgb(192,208,224);stroke-opacity: 1;" transform="matrix(1,0,0,1,0,0)" clip-path="url(#clip-0)"/><g transform="matrix(1,0,0,1,0,0)"><text x="93.2" y="557.68" style="fill: rgb(102,102,102); font-family: Lucida Sans; font-size: 11px; font-weight: bold; " text-rendering="auto" clip-path="url(#clip-0)">-0.6</text></g><line x1="105.2" y1="547" x2="105.2" y2="542" style="stroke-width: 0.5;stroke: rgb(192,208,224);stroke-opacity: 1;" transform="matrix(1,0,0,1,0,0)" clip-path="url(#clip-0)"/><g transform="matrix(1,0,0,1,0,0)"><text x="140.4" y="557.68" style="fill: rgb(102,102,102); font-family: Lucida Sans; font-size: 11px; font-weight: bold; " text-rendering="auto" clip-path="url(#clip-0)">-0.5</text></g><line x1="152.4" y1="547" x2="152.4" y2="542" style="stroke-width: 0.5;stroke: rgb(192,208,224);stroke-opacity: 1;" transform="matrix(1,0,0,1,0,0)" clip-path="url(#clip-0)"/><g transform="matrix(1,0,0,1,0,0)"><text x="187.59" y="557.68" style="fill: rgb(102,102,102); font-family: Lucida Sans; font-size: 11px; font-weight: bold; " text-rendering="auto" clip-path="url(#clip-0)">-0.4</text></g><line x1="199.59" y1="547" x2="199.59" y2="542" style="stroke-width: 0.5;stroke: rgb(192,208,224);stroke-opacity: 1;" transform="matrix(1,0,0,1,0,0)" clip-path="url(#clip-0)"/><g transform="matrix(1,0,0,1,0,0)"><text x="234.79" y="557.68" style="fill: rgb(102,102,102); font-family: Lucida Sans; font-size: 11px; font-weight: bold; " text-rendering="auto" clip-path="url(#clip-0)">-0.3</text></g><line x1="246.79" y1="547" x2="246.79" y2="542" style="stroke-width: 0.5;stroke: rgb(192,208,224);stroke-opacity: 1;" transform="matrix(1,0,0,1,0,0)" clip-path="url(#clip-0)"/><g transform="matrix(1,0,0,1,0,0)"><text x="281.98" y="557.68" style="fill: rgb(102,102,102); font-family: Lucida Sans; font-size: 11px; font-weight: bold; " text-rendering="auto" clip-path="url(#clip-0)">-0.2</text></g><line x1="293.98" y1="547" x2="293.98" y2="542" style="stroke-width: 0.5;stroke: rgb(192,208,224);stroke-opacity: 1;" transform="matrix(1,0,0,1,0,0)" clip-path="url(#clip-0)"/><g transform="matrix(1,0,0,1,0,0)"><text x="329.17" y="557.68" style="fill: rgb(102,102,102); font-family: Lucida Sans; font-size: 11px; font-weight: bold; " text-rendering="auto" clip-path="url(#clip-0)">-0.1</text></g><line x1="341.17" y1="547" x2="341.17" y2="542" style="stroke-width: 0.5;stroke: rgb(192,208,224);stroke-opacity: 1;" transform="matrix(1,0,0,1,0,0)" clip-path="url(#clip-0)"/><g transform="matrix(1,0,0,1,0,0)"><text x="379.87" y="557.68" style="fill: rgb(102,102,102); font-family: Lucida Sans; font-size: 11px; font-weight: bold; " text-rendering="auto" clip-path="url(#clip-0)">0.0</text></g><line x1="388.37" y1="547" x2="388.37" y2="542" style="stroke-width: 0.5;stroke: rgb(192,208,224);stroke-opacity: 1;" transform="matrix(1,0,0,1,0,0)" clip-path="url(#clip-0)"/><g transform="matrix(1,0,0,1,0,0)"><text x="427.06" y="557.68" style="fill: rgb(102,102,102); font-family: Lucida Sans; font-size: 11px; font-weight: bold; " text-rendering="auto" clip-path="url(#clip-0)">0.1</text></g><line x1="435.56" y1="547" x2="435.56" y2="542" style="stroke-width: 0.5;stroke: rgb(192,208,224);stroke-opacity: 1;" transform="matrix(1,0,0,1,0,0)" clip-path="url(#clip-0)"/><g transform="matrix(1,0,0,1,0,0)"><text x="474.25" y="557.68" style="fill: rgb(102,102,102); font-family: Lucida Sans; font-size: 11px; font-weight: bold; " text-rendering="auto" clip-path="url(#clip-0)">0.2</text></g><line x1="482.75" y1="547" x2="482.75" y2="542" style="stroke-width: 0.5;stroke: rgb(192,208,224);stroke-opacity: 1;" transform="matrix(1,0,0,1,0,0)" clip-path="url(#clip-0)"/><g transform="matrix(1,0,0,1,0,0)"><text x="521.45" y="557.68" style="fill: rgb(102,102,102); font-family: Lucida Sans; font-size: 11px; font-weight: bold; " text-rendering="auto" clip-path="url(#clip-0)">0.3</text></g><line x1="529.95" y1="547" x2="529.95" y2="542" style="stroke-width: 0.5;stroke: rgb(192,208,224);stroke-opacity: 1;" transform="matrix(1,0,0,1,0,0)" clip-path="url(#clip-0)"/><g transform="matrix(1,0,0,1,0,0)"><text x="568.64" y="557.68" style="fill: rgb(102,102,102); font-family: Lucida Sans; font-size: 11px; font-weight: bold; " text-rendering="auto" clip-path="url(#clip-0)">0.4</text></g><line x1="577.14" y1="547" x2="577.14" y2="542" style="stroke-width: 0.5;stroke: rgb(192,208,224);stroke-opacity: 1;" transform="matrix(1,0,0,1,0,0)" clip-path="url(#clip-0)"/><g transform="matrix(1,0,0,1,0,0)"><text x="615.84" y="557.68" style="fill: rgb(102,102,102); font-family: Lucida Sans; font-size: 11px; font-weight: bold; " text-rendering="auto" clip-path="url(#clip-0)">0.5</text></g><line x1="624.34" y1="547" x2="624.34" y2="542" style="stroke-width: 0.5;stroke: rgb(192,208,224);stroke-opacity: 1;" transform="matrix(1,0,0,1,0,0)" clip-path="url(#clip-0)"/><g transform="matrix(1,0,0,1,0,0)"><text x="663.03" y="557.68" style="fill: rgb(102,102,102); font-family: Lucida Sans; font-size: 11px; font-weight: bold; " text-rendering="auto" clip-path="url(#clip-0)">0.6</text></g><line x1="671.53" y1="547" x2="671.53" y2="542" style="stroke-width: 0.5;stroke: rgb(192,208,224);stroke-opacity: 1;" transform="matrix(1,0,0,1,0,0)" clip-path="url(#clip-0)"/><g transform="matrix(1,0,0,1,0,0)"><text x="710.22" y="557.68" style="fill: rgb(102,102,102); font-family: Lucida Sans; font-size: 11px; font-weight: bold; " text-rendering="auto" clip-path="url(#clip-0)">0.7</text></g><line x1="718.72" y1="547" x2="718.72" y2="542" style="stroke-width: 0.5;stroke: rgb(192,208,224);stroke-opacity: 1;" transform="matrix(1,0,0,1,0,0)" clip-path="url(#clip-0)"/><g transform="matrix(1,0,0,1,0,0)"><text x="757.42" y="557.68" style="fill: rgb(102,102,102); font-family: Lucida Sans; font-size: 11px; font-weight: bold; " text-rendering="auto" clip-path="url(#clip-0)">0.8</text></g><line x1="765.92" y1="547" x2="765.92" y2="542" style="stroke-width: 0.5;stroke: rgb(192,208,224);stroke-opacity: 1;" transform="matrix(1,0,0,1,0,0)" clip-path="url(#clip-0)"/><g transform="matrix(1,0,0,1,0,0)"><text x="363" y="577.64" style="fill: rgb(77,117,158); font-family: Lucida Sans; font-size: 15px; font-weight: bold; " text-rendering="auto" clip-path="url(#clip-0)">Axe 1 (33.04%)</text></g><line x1="74" y1="62" x2="74" y2="542" style="stroke-width: 0.5;stroke: rgb(192,208,224);stroke-opacity: 1;" transform="matrix(1,0,0,1,0,0)" clip-path="url(#clip-0)"/><g transform="matrix(1,0,0,1,0,0)"><text x="37" y="535.8" style="fill: rgb(102,102,102); font-family: Lucida Sans; font-size: 11px; font-weight: bold; " text-rendering="auto" clip-path="url(#clip-0)">-0.60</text></g><line x1="69" y1="531.12" x2="74" y2="531.12" style="stroke-width: 0.5;stroke: rgb(192,208,224);stroke-opacity: 1;" transform="matrix(1,0,0,1,0,0)" clip-path="url(#clip-0)"/><g transform="matrix(1,0,0,1,0,0)"><text x="37" y="514.43" style="fill: rgb(102,102,102); font-family: Lucida Sans; font-size: 11px; font-weight: bold; " text-rendering="auto" clip-path="url(#clip-0)">-0.55</text></g><line x1="69" y1="509.75" x2="74" y2="509.75" style="stroke-width: 0.5;stroke: rgb(192,208,224);stroke-opacity: 1;" transform="matrix(1,0,0,1,0,0)" clip-path="url(#clip-0)"/><g transform="matrix(1,0,0,1,0,0)"><text x="37" y="493.05" style="fill: rgb(102,102,102); font-family: Lucida Sans; font-size: 11px; font-weight: bold; " text-rendering="auto" clip-path="url(#clip-0)">-0.50</text></g><line x1="69" y1="488.37" x2="74" y2="488.37" style="stroke-width: 0.5;stroke: rgb(192,208,224);stroke-opacity: 1;" transform="matrix(1,0,0,1,0,0)" clip-path="url(#clip-0)"/><g transform="matrix(1,0,0,1,0,0)"><text x="37" y="471.68" style="fill: rgb(102,102,102); font-family: Lucida Sans; font-size: 11px; font-weight: bold; " text-rendering="auto" clip-path="url(#clip-0)">-0.45</text></g><line x1="69" y1="467" x2="74" y2="467" style="stroke-width: 0.5;stroke: rgb(192,208,224);stroke-opacity: 1;" transform="matrix(1,0,0,1,0,0)" clip-path="url(#clip-0)"/><g transform="matrix(1,0,0,1,0,0)"><text x="37" y="450.31" style="fill: rgb(102,102,102); font-family: Lucida Sans; font-size: 11px; font-weight: bold; " text-rendering="auto" clip-path="url(#clip-0)">-0.40</text></g><line x1="69" y1="445.63" x2="74" y2="445.63" style="stroke-width: 0.5;stroke: rgb(192,208,224);stroke-opacity: 1;" transform="matrix(1,0,0,1,0,0)" clip-path="url(#clip-0)"/><g transform="matrix(1,0,0,1,0,0)"><text x="37" y="428.93" style="fill: rgb(102,102,102); font-family: Lucida Sans; font-size: 11px; font-weight: bold; " text-rendering="auto" clip-path="url(#clip-0)">-0.35</text></g><line x1="69" y1="424.25" x2="74" y2="424.25" style="stroke-width: 0.5;stroke: rgb(192,208,224);stroke-opacity: 1;" transform="matrix(1,0,0,1,0,0)" clip-path="url(#clip-0)"/><g transform="matrix(1,0,0,1,0,0)"><text x="37" y="407.56" style="fill: rgb(102,102,102); font-family: Lucida Sans; font-size: 11px; font-weight: bold; " text-rendering="auto" clip-path="url(#clip-0)">-0.30</text></g><line x1="69" y1="402.88" x2="74" y2="402.88" style="stroke-width: 0.5;stroke: rgb(192,208,224);stroke-opacity: 1;" transform="matrix(1,0,0,1,0,0)" clip-path="url(#clip-0)"/><g transform="matrix(1,0,0,1,0,0)"><text x="37" y="386.19" style="fill: rgb(102,102,102); font-family: Lucida Sans; font-size: 11px; font-weight: bold; " text-rendering="auto" clip-path="url(#clip-0)">-0.25</text></g><line x1="69" y1="381.51" x2="74" y2="381.51" style="stroke-width: 0.5;stroke: rgb(192,208,224);stroke-opacity: 1;" transform="matrix(1,0,0,1,0,0)" clip-path="url(#clip-0)"/><g transform="matrix(1,0,0,1,0,0)"><text x="37" y="364.82" style="fill: rgb(102,102,102); font-family: Lucida Sans; font-size: 11px; font-weight: bold; " text-rendering="auto" clip-path="url(#clip-0)">-0.20</text></g><line x1="69" y1="360.14" x2="74" y2="360.14" style="stroke-width: 0.5;stroke: rgb(192,208,224);stroke-opacity: 1;" transform="matrix(1,0,0,1,0,0)" clip-path="url(#clip-0)"/><g transform="matrix(1,0,0,1,0,0)"><text x="37" y="343.44" style="fill: rgb(102,102,102); font-family: Lucida Sans; font-size: 11px; font-weight: bold; " text-rendering="auto" clip-path="url(#clip-0)">-0.15</text></g><line x1="69" y1="338.76" x2="74" y2="338.76" style="stroke-width: 0.5;stroke: rgb(192,208,224);stroke-opacity: 1;" transform="matrix(1,0,0,1,0,0)" clip-path="url(#clip-0)"/><g transform="matrix(1,0,0,1,0,0)"><text x="37" y="322.07" style="fill: rgb(102,102,102); font-family: Lucida Sans; font-size: 11px; font-weight: bold; " text-rendering="auto" clip-path="url(#clip-0)">-0.10</text></g><line x1="69" y1="317.39" x2="74" y2="317.39" style="stroke-width: 0.5;stroke: rgb(192,208,224);stroke-opacity: 1;" transform="matrix(1,0,0,1,0,0)" clip-path="url(#clip-0)"/><g transform="matrix(1,0,0,1,0,0)"><text x="37" y="300.7" style="fill: rgb(102,102,102); font-family: Lucida Sans; font-size: 11px; font-weight: bold; " text-rendering="auto" clip-path="url(#clip-0)">-0.05</text></g><line x1="69" y1="296.02" x2="74" y2="296.02" style="stroke-width: 0.5;stroke: rgb(192,208,224);stroke-opacity: 1;" transform="matrix(1,0,0,1,0,0)" clip-path="url(#clip-0)"/><g transform="matrix(1,0,0,1,0,0)"><text x="44" y="279.32" style="fill: rgb(102,102,102); font-family: Lucida Sans; font-size: 11px; font-weight: bold; " text-rendering="auto" clip-path="url(#clip-0)">0.00</text></g><line x1="69" y1="274.64" x2="74" y2="274.64" style="stroke-width: 0.5;stroke: rgb(192,208,224);stroke-opacity: 1;" transform="matrix(1,0,0,1,0,0)" clip-path="url(#clip-0)"/><g transform="matrix(1,0,0,1,0,0)"><text x="44" y="257.95" style="fill: rgb(102,102,102); font-family: Lucida Sans; font-size: 11px; font-weight: bold; " text-rendering="auto" clip-path="url(#clip-0)">0.05</text></g><line x1="69" y1="253.27" x2="74" y2="253.27" style="stroke-width: 0.5;stroke: rgb(192,208,224);stroke-opacity: 1;" transform="matrix(1,0,0,1,0,0)" clip-path="url(#clip-0)"/><g transform="matrix(1,0,0,1,0,0)"><text x="44" y="236.58" style="fill: rgb(102,102,102); font-family: Lucida Sans; font-size: 11px; font-weight: bold; " text-rendering="auto" clip-path="url(#clip-0)">0.10</text></g><line x1="69" y1="231.9" x2="74" y2="231.9" style="stroke-width: 0.5;stroke: rgb(192,208,224);stroke-opacity: 1;" transform="matrix(1,0,0,1,0,0)" clip-path="url(#clip-0)"/><g transform="matrix(1,0,0,1,0,0)"><text x="44" y="215.21" style="fill: rgb(102,102,102); font-family: Lucida Sans; font-size: 11px; font-weight: bold; " text-rendering="auto" clip-path="url(#clip-0)">0.15</text></g><line x1="69" y1="210.53" x2="74" y2="210.53" style="stroke-width: 0.5;stroke: rgb(192,208,224);stroke-opacity: 1;" transform="matrix(1,0,0,1,0,0)" clip-path="url(#clip-0)"/><g transform="matrix(1,0,0,1,0,0)"><text x="44" y="193.83" style="fill: rgb(102,102,102); font-family: Lucida Sans; font-size: 11px; font-weight: bold; " text-rendering="auto" clip-path="url(#clip-0)">0.20</text></g><line x1="69" y1="189.15" x2="74" y2="189.15" style="stroke-width: 0.5;stroke: rgb(192,208,224);stroke-opacity: 1;" transform="matrix(1,0,0,1,0,0)" clip-path="url(#clip-0)"/><g transform="matrix(1,0,0,1,0,0)"><text x="44" y="172.46" style="fill: rgb(102,102,102); font-family: Lucida Sans; font-size: 11px; font-weight: bold; " text-rendering="auto" clip-path="url(#clip-0)">0.25</text></g><line x1="69" y1="167.78" x2="74" y2="167.78" style="stroke-width: 0.5;stroke: rgb(192,208,224);stroke-opacity: 1;" transform="matrix(1,0,0,1,0,0)" clip-path="url(#clip-0)"/><g transform="matrix(1,0,0,1,0,0)"><text x="44" y="151.09" style="fill: rgb(102,102,102); font-family: Lucida Sans; font-size: 11px; font-weight: bold; " text-rendering="auto" clip-path="url(#clip-0)">0.30</text></g><line x1="69" y1="146.41" x2="74" y2="146.41" style="stroke-width: 0.5;stroke: rgb(192,208,224);stroke-opacity: 1;" transform="matrix(1,0,0,1,0,0)" clip-path="url(#clip-0)"/><g transform="matrix(1,0,0,1,0,0)"><text x="44" y="129.71" style="fill: rgb(102,102,102); font-family: Lucida Sans; font-size: 11px; font-weight: bold; " text-rendering="auto" clip-path="url(#clip-0)">0.35</text></g><line x1="69" y1="125.03" x2="74" y2="125.03" style="stroke-width: 0.5;stroke: rgb(192,208,224);stroke-opacity: 1;" transform="matrix(1,0,0,1,0,0)" clip-path="url(#clip-0)"/><g transform="matrix(1,0,0,1,0,0)"><text x="44" y="108.34" style="fill: rgb(102,102,102); font-family: Lucida Sans; font-size: 11px; font-weight: bold; " text-rendering="auto" clip-path="url(#clip-0)">0.40</text></g><line x1="69" y1="103.66" x2="74" y2="103.66" style="stroke-width: 0.5;stroke: rgb(192,208,224);stroke-opacity: 1;" transform="matrix(1,0,0,1,0,0)" clip-path="url(#clip-0)"/><g transform="matrix(1,0,0,1,0,0)"><text x="44" y="86.97" style="fill: rgb(102,102,102); font-family: Lucida Sans; font-size: 11px; font-weight: bold; " text-rendering="auto" clip-path="url(#clip-0)">0.45</text></g><line x1="69" y1="82.29" x2="74" y2="82.29" style="stroke-width: 0.5;stroke: rgb(192,208,224);stroke-opacity: 1;" transform="matrix(1,0,0,1,0,0)" clip-path="url(#clip-0)"/><g style="fill: rgb(77,117,158);fill-opacity: 1; stroke: none" transform="matrix(0,-1,1,0,-279.5,324.5)" clip-path="url(#clip-1)"><path d="M -35.83 308.34 L -31.61 297.49 L -29.36 297.49 L -25.14 308.34 L -27.45 308.34 L -28.58 305.45 L -33.06 305.45 L -34.19 308.34 L -35.83 308.34 M -35.83 308.34 M -32.5 303.99 L -29.14 303.99 L -30.83 299.68 L -32.5 303.99 M -32.5 303.99 M -24.5 308.34 L -21.73 304.3 L -24.39 300.29 L -21.92 300.29 L -20.19 302.84 L -18.53 300.29 L -16.78 300.29 L -19.3 304.24 L -16.59 308.34 L -19.06 308.34 L -20.86 305.68 L -22.7 308.34 L -24.5 308.34 M -24.5 308.34 M -8.09 308.07 Q -9.64 308.52 -11.03 308.52 Q -13.05 308.52 -14.21 307.38 Q -15.38 306.23 -15.38 304.26 Q -15.38 302.38 -14.3 301.25 Q -13.23 300.12 -11.48 300.12 Q -9.72 300.12 -8.91 301.23 Q -8.09 302.34 -8.09 304.74 L -13.08 304.74 Q -12.86 307.04 -10.56 307.04 Q -9.47 307.04 -8.09 306.54 L -8.09 308.07 M -8.09 308.07 M -13.11 303.52 L -10.23 303.52 Q -10.23 301.46 -11.55 301.46 Q -12.91 301.46 -13.11 303.52 M -13.11 303.52 M -0.92 308.34 L -0.92 306.62 L -0.81 306.46 Q 0.06 305.29 0.98 304.49 L 1.88 303.71 Q 4.06 301.77 4.06 300.32 Q 4.06 298.62 2.12 298.62 Q 0.94 298.62 -0.64 299.43 L -0.64 297.84 Q 1.02 297.23 2.56 297.23 Q 4.28 297.23 5.32 298.04 Q 6.36 298.85 6.36 300.23 Q 6.36 301.18 5.86 301.95 Q 5.36 302.73 4.08 303.76 L 3.34 304.34 Q 1.81 305.57 1.53 306.62 L 6.33 306.62 L 6.33 308.34 L -0.92 308.34 M -0.92 308.34 M 17.83 296.68 L 17.83 298.09 Q 15.89 300.04 15.89 303.63 Q 15.89 307.23 17.83 309.2 L 17.83 310.59 Q 16.05 309.63 14.98 307.73 Q 13.91 305.82 13.91 303.63 Q 13.91 301.45 14.96 299.57 Q 16.02 297.7 17.83 296.68 M 17.83 296.68 M 20.08 308.34 L 20.08 306.62 L 20.19 306.46 Q 21.06 305.29 21.98 304.49 L 22.88 303.71 Q 25.06 301.77 25.06 300.32 Q 25.06 298.62 23.12 298.62 Q 21.94 298.62 20.36 299.43 L 20.36 297.84 Q 22.02 297.23 23.56 297.23 Q 25.28 297.23 26.32 298.04 Q 27.36 298.85 27.36 300.23 Q 27.36 301.18 26.86 301.95 Q 26.36 302.73 25.08 303.76 L 24.34 304.34 Q 22.81 305.57 22.53 306.62 L 27.33 306.62 L 27.33 308.34 L 20.08 308.34 M 20.08 308.34 M 30.48 308.26 L 30.48 306.63 Q 32.09 307.26 33.14 307.26 Q 34.11 307.26 34.7 306.76 Q 35.3 306.26 35.3 305.43 Q 35.3 303.29 32.16 303.29 L 31.48 303.29 L 31.48 301.99 L 32.05 301.98 Q 34.98 301.98 34.98 300.05 Q 34.98 298.59 33.17 298.59 Q 31.98 298.59 30.62 299.2 L 30.62 297.71 Q 32.05 297.21 33.64 297.21 Q 35.31 297.21 36.26 297.91 Q 37.2 298.6 37.2 299.8 Q 37.2 301.73 34.81 302.52 Q 37.56 303.15 37.56 305.45 Q 37.56 306.91 36.46 307.76 Q 35.36 308.6 33.47 308.6 Q 31.86 308.6 30.48 308.26 M 30.48 308.26 M 39.69 308.34 L 39.69 305.99 L 42.03 305.99 L 42.03 308.34 L 39.69 308.34 M 39.69 308.34 M 45.11 308.34 L 45.11 307.07 L 47.28 307.07 L 47.28 299.07 L 45.11 299.62 L 45.11 298.3 L 49.45 297.23 L 49.45 307.07 L 51.62 307.07 L 51.62 308.34 L 45.11 308.34 M 45.11 308.34 M 55.11 308.34 L 55.11 307.07 L 57.28 307.07 L 57.28 299.07 L 55.11 299.62 L 55.11 298.3 L 59.45 297.23 L 59.45 307.07 L 61.62 307.07 L 61.62 308.34 L 55.11 308.34 M 55.11 308.34 M 63.88 308.6 L 72.41 297.23 L 73.88 297.23 L 65.34 308.6 L 63.88 308.6 M 63.88 308.6 M 65.73 302.91 Q 64.55 302.91 63.87 302.19 Q 63.19 301.46 63.19 300.21 Q 63.19 298.95 63.88 298.22 Q 64.56 297.49 65.77 297.49 Q 66.95 297.49 67.64 298.22 Q 68.33 298.95 68.33 300.2 Q 68.33 301.48 67.64 302.2 Q 66.95 302.91 65.73 302.91 M 65.73 302.91 M 65.75 301.84 Q 66.7 301.84 66.7 300.2 Q 66.7 298.59 65.77 298.59 Q 64.81 298.59 64.81 300.21 Q 64.81 301.84 65.75 301.84 M 65.75 301.84 M 71.97 308.34 Q 70.78 308.34 70.1 307.61 Q 69.42 306.88 69.42 305.63 Q 69.42 304.35 70.11 303.63 Q 70.8 302.91 72 302.91 Q 73.2 302.91 73.88 303.63 Q 74.56 304.35 74.56 305.62 Q 74.56 306.9 73.88 307.62 Q 73.19 308.34 71.97 308.34 M 71.97 308.34 M 71.98 307.26 Q 72.94 307.26 72.94 305.62 Q 72.94 303.99 72 303.99 Q 71.05 303.99 71.05 305.63 Q 71.05 307.26 71.98 307.26 M 71.98 307.26 M 76.17 296.68 L 76.17 298.09 Q 78.11 300.04 78.11 303.63 Q 78.11 307.23 76.17 309.2 L 76.17 310.59 Q 77.95 309.63 79.02 307.73 Q 80.09 305.82 80.09 303.63 Q 80.09 301.45 79.04 299.57 Q 77.98 297.7 76.17 296.68 M 76.17 296.68"/></g><line x1="105.2" y1="62" x2="105.2" y2="542" style="stroke-width: 0.5;stroke: rgb(192,192,192);stroke-opacity: 1;stroke-dasharray: 2.0;" transform="matrix(1,0,0,1,0,0)" clip-path="url(#clip-2)"/><line x1="152.4" y1="62" x2="152.4" y2="542" style="stroke-width: 0.5;stroke: rgb(192,192,192);stroke-opacity: 1;stroke-dasharray: 2.0;" transform="matrix(1,0,0,1,0,0)" clip-path="url(#clip-2)"/><line x1="199.59" y1="62" x2="199.59" y2="542" style="stroke-width: 0.5;stroke: rgb(192,192,192);stroke-opacity: 1;stroke-dasharray: 2.0;" transform="matrix(1,0,0,1,0,0)" clip-path="url(#clip-2)"/><line x1="246.79" y1="62" x2="246.79" y2="542" style="stroke-width: 0.5;stroke: rgb(192,192,192);stroke-opacity: 1;stroke-dasharray: 2.0;" transform="matrix(1,0,0,1,0,0)" clip-path="url(#clip-2)"/><line x1="293.98" y1="62" x2="293.98" y2="542" style="stroke-width: 0.5;stroke: rgb(192,192,192);stroke-opacity: 1;stroke-dasharray: 2.0;" transform="matrix(1,0,0,1,0,0)" clip-path="url(#clip-2)"/><line x1="341.17" y1="62" x2="341.17" y2="542" style="stroke-width: 0.5;stroke: rgb(192,192,192);stroke-opacity: 1;stroke-dasharray: 2.0;" transform="matrix(1,0,0,1,0,0)" clip-path="url(#clip-2)"/><line x1="388.37" y1="62" x2="388.37" y2="542" style="stroke-width: 0.5;stroke: rgb(192,192,192);stroke-opacity: 1;stroke-dasharray: 2.0;" transform="matrix(1,0,0,1,0,0)" clip-path="url(#clip-2)"/><line x1="435.56" y1="62" x2="435.56" y2="542" style="stroke-width: 0.5;stroke: rgb(192,192,192);stroke-opacity: 1;stroke-dasharray: 2.0;" transform="matrix(1,0,0,1,0,0)" clip-path="url(#clip-2)"/><line x1="482.75" y1="62" x2="482.75" y2="542" style="stroke-width: 0.5;stroke: rgb(192,192,192);stroke-opacity: 1;stroke-dasharray: 2.0;" transform="matrix(1,0,0,1,0,0)" clip-path="url(#clip-2)"/><line x1="529.95" y1="62" x2="529.95" y2="542" style="stroke-width: 0.5;stroke: rgb(192,192,192);stroke-opacity: 1;stroke-dasharray: 2.0;" transform="matrix(1,0,0,1,0,0)" clip-path="url(#clip-2)"/><line x1="577.14" y1="62" x2="577.14" y2="542" style="stroke-width: 0.5;stroke: rgb(192,192,192);stroke-opacity: 1;stroke-dasharray: 2.0;" transform="matrix(1,0,0,1,0,0)" clip-path="url(#clip-2)"/><line x1="624.34" y1="62" x2="624.34" y2="542" style="stroke-width: 0.5;stroke: rgb(192,192,192);stroke-opacity: 1;stroke-dasharray: 2.0;" transform="matrix(1,0,0,1,0,0)" clip-path="url(#clip-2)"/><line x1="671.53" y1="62" x2="671.53" y2="542" style="stroke-width: 0.5;stroke: rgb(192,192,192);stroke-opacity: 1;stroke-dasharray: 2.0;" transform="matrix(1,0,0,1,0,0)" clip-path="url(#clip-2)"/><line x1="718.72" y1="62" x2="718.72" y2="542" style="stroke-width: 0.5;stroke: rgb(192,192,192);stroke-opacity: 1;stroke-dasharray: 2.0;" transform="matrix(1,0,0,1,0,0)" clip-path="url(#clip-2)"/><line x1="765.92" y1="62" x2="765.92" y2="542" style="stroke-width: 0.5;stroke: rgb(192,192,192);stroke-opacity: 1;stroke-dasharray: 2.0;" transform="matrix(1,0,0,1,0,0)" clip-path="url(#clip-2)"/><line x1="388.37" y1="62" x2="388.37" y2="542" style="stroke-width: 0.5;stroke: rgb(134,145,156);stroke-opacity: 1;" transform="matrix(1,0,0,1,0,0)" clip-path="url(#clip-2)"/><line x1="74" y1="531.12" x2="769" y2="531.12" style="stroke-width: 0.5;stroke: rgb(192,192,192);stroke-opacity: 1;stroke-dasharray: 2.0;" transform="matrix(1,0,0,1,0,0)" clip-path="url(#clip-2)"/><line x1="74" y1="509.75" x2="769" y2="509.75" style="stroke-width: 0.5;stroke: rgb(192,192,192);stroke-opacity: 1;stroke-dasharray: 2.0;" transform="matrix(1,0,0,1,0,0)" clip-path="url(#clip-2)"/><line x1="74" y1="488.37" x2="769" y2="488.37" style="stroke-width: 0.5;stroke: rgb(192,192,192);stroke-opacity: 1;stroke-dasharray: 2.0;" transform="matrix(1,0,0,1,0,0)" clip-path="url(#clip-2)"/><line x1="74" y1="467" x2="769" y2="467" style="stroke-width: 0.5;stroke: rgb(192,192,192);stroke-opacity: 1;stroke-dasharray: 2.0;" transform="matrix(1,0,0,1,0,0)" clip-path="url(#clip-2)"/><line x1="74" y1="445.63" x2="769" y2="445.63" style="stroke-width: 0.5;stroke: rgb(192,192,192);stroke-opacity: 1;stroke-dasharray: 2.0;" transform="matrix(1,0,0,1,0,0)" clip-path="url(#clip-2)"/><line x1="74" y1="424.25" x2="769" y2="424.25" style="stroke-width: 0.5;stroke: rgb(192,192,192);stroke-opacity: 1;stroke-dasharray: 2.0;" transform="matrix(1,0,0,1,0,0)" clip-path="url(#clip-2)"/><line x1="74" y1="402.88" x2="769" y2="402.88" style="stroke-width: 0.5;stroke: rgb(192,192,192);stroke-opacity: 1;stroke-dasharray: 2.0;" transform="matrix(1,0,0,1,0,0)" clip-path="url(#clip-2)"/><line x1="74" y1="381.51" x2="769" y2="381.51" style="stroke-width: 0.5;stroke: rgb(192,192,192);stroke-opacity: 1;stroke-dasharray: 2.0;" transform="matrix(1,0,0,1,0,0)" clip-path="url(#clip-2)"/><line x1="74" y1="360.14" x2="769" y2="360.14" style="stroke-width: 0.5;stroke: rgb(192,192,192);stroke-opacity: 1;stroke-dasharray: 2.0;" transform="matrix(1,0,0,1,0,0)" clip-path="url(#clip-2)"/><line x1="74" y1="338.76" x2="769" y2="338.76" style="stroke-width: 0.5;stroke: rgb(192,192,192);stroke-opacity: 1;stroke-dasharray: 2.0;" transform="matrix(1,0,0,1,0,0)" clip-path="url(#clip-2)"/><line x1="74" y1="317.39" x2="769" y2="317.39" style="stroke-width: 0.5;stroke: rgb(192,192,192);stroke-opacity: 1;stroke-dasharray: 2.0;" transform="matrix(1,0,0,1,0,0)" clip-path="url(#clip-2)"/><line x1="74" y1="296.02" x2="769" y2="296.02" style="stroke-width: 0.5;stroke: rgb(192,192,192);stroke-opacity: 1;stroke-dasharray: 2.0;" transform="matrix(1,0,0,1,0,0)" clip-path="url(#clip-2)"/><line x1="74" y1="253.27" x2="769" y2="253.27" style="stroke-width: 0.5;stroke: rgb(192,192,192);stroke-opacity: 1;stroke-dasharray: 2.0;" transform="matrix(1,0,0,1,0,0)" clip-path="url(#clip-2)"/><line x1="74" y1="231.9" x2="769" y2="231.9" style="stroke-width: 0.5;stroke: rgb(192,192,192);stroke-opacity: 1;stroke-dasharray: 2.0;" transform="matrix(1,0,0,1,0,0)" clip-path="url(#clip-2)"/><line x1="74" y1="210.53" x2="769" y2="210.53" style="stroke-width: 0.5;stroke: rgb(192,192,192);stroke-opacity: 1;stroke-dasharray: 2.0;" transform="matrix(1,0,0,1,0,0)" clip-path="url(#clip-2)"/><line x1="74" y1="189.15" x2="769" y2="189.15" style="stroke-width: 0.5;stroke: rgb(192,192,192);stroke-opacity: 1;stroke-dasharray: 2.0;" transform="matrix(1,0,0,1,0,0)" clip-path="url(#clip-2)"/><line x1="74" y1="167.78" x2="769" y2="167.78" style="stroke-width: 0.5;stroke: rgb(192,192,192);stroke-opacity: 1;stroke-dasharray: 2.0;" transform="matrix(1,0,0,1,0,0)" clip-path="url(#clip-2)"/><line x1="74" y1="146.41" x2="769" y2="146.41" style="stroke-width: 0.5;stroke: rgb(192,192,192);stroke-opacity: 1;stroke-dasharray: 2.0;" transform="matrix(1,0,0,1,0,0)" clip-path="url(#clip-2)"/><line x1="74" y1="125.03" x2="769" y2="125.03" style="stroke-width: 0.5;stroke: rgb(192,192,192);stroke-opacity: 1;stroke-dasharray: 2.0;" transform="matrix(1,0,0,1,0,0)" clip-path="url(#clip-2)"/><line x1="74" y1="103.66" x2="769" y2="103.66" style="stroke-width: 0.5;stroke: rgb(192,192,192);stroke-opacity: 1;stroke-dasharray: 2.0;" transform="matrix(1,0,0,1,0,0)" clip-path="url(#clip-2)"/><line x1="74" y1="82.29" x2="769" y2="82.29" style="stroke-width: 0.5;stroke: rgb(192,192,192);stroke-opacity: 1;stroke-dasharray: 2.0;" transform="matrix(1,0,0,1,0,0)" clip-path="url(#clip-2)"/><line x1="74" y1="274.64" x2="769" y2="274.64" style="stroke-width: 0.5;stroke: rgb(134,145,156);stroke-opacity: 1;" transform="matrix(1,0,0,1,0,0)" clip-path="url(#clip-2)"/><g style="fill: rgb(0,0,0);fill-opacity: 0; stroke: none" transform="matrix(1,0,0,1,0,0)" clip-path="url(#clip-2)"><path d="M 442.72 325.06 L 442.72 330.86 C 442.72 332.24 443.84 333.36 445.22 333.36 L 473.22 333.36 C 474.6 333.36 475.72 332.24 475.72 330.86 L 475.72 325.06 C 475.72 323.68 474.6 322.56 473.22 322.56 L 445.22 322.56 C 443.84 322.56 442.72 323.68 442.72 325.06 M 442.72 325.06"/></g><g style="stroke-width: 1.0;stroke: rgb(0,0,0);stroke-opacity: 0; fill: none" transform="matrix(1,0,0,1,0,0)" clip-path="url(#clip-2)"><path d="M 442.72 325.06 L 442.72 330.86 C 442.72 332.24 443.84 333.36 445.22 333.36 L 473.22 333.36 C 474.6 333.36 475.72 332.24 475.72 330.86 L 475.72 325.06 C 475.72 323.68 474.6 322.56 473.22 322.56 L 445.22 322.56 C 443.84 322.56 442.72 323.68 442.72 325.06 M 442.72 325.06"/></g><g transform="matrix(1,0,0,1,0,0)"><text x="442.72" y="333.62" style="fill: rgb(255,0,0); font-family: Lucida Sans; font-size: 11px; " text-rendering="auto" clip-path="url(#clip-2)">chirac</text></g><g style="fill: rgb(0,0,0);fill-opacity: 0; stroke: none" transform="matrix(1,0,0,1,0,0)" clip-path="url(#clip-2)"><path d="M 236.9 313.76 L 236.9 319.56 C 236.9 320.94 238.02 322.06 239.4 322.06 L 248.4 322.06 C 249.78 322.06 250.9 320.94 250.9 319.56 L 250.9 313.76 C 250.9 312.38 249.78 311.26 248.4 311.26 L 239.4 311.26 C 238.02 311.26 236.9 312.38 236.9 313.76 M 236.9 313.76"/></g><g style="stroke-width: 1.0;stroke: rgb(0,0,0);stroke-opacity: 0; fill: none" transform="matrix(1,0,0,1,0,0)" clip-path="url(#clip-2)"><path d="M 236.9 313.76 L 236.9 319.56 C 236.9 320.94 238.02 322.06 239.4 322.06 L 248.4 322.06 C 249.78 322.06 250.9 320.94 250.9 319.56 L 250.9 313.76 C 250.9 312.38 249.78 311.26 248.4 311.26 L 239.4 311.26 C 238.02 311.26 236.9 312.38 236.9 313.76 M 236.9 313.76"/></g><g transform="matrix(1,0,0,1,0,0)"><text x="236.9" y="322.31" style="fill: rgb(255,0,0); font-family: Lucida Sans; font-size: 11px; " text-rendering="auto" clip-path="url(#clip-2)">dg</text></g><g style="fill: rgb(0,0,0);fill-opacity: 0; stroke: none" transform="matrix(1,0,0,1,0,0)" clip-path="url(#clip-2)"><path d="M 374.26 109.62 L 374.26 115.42 C 374.26 116.8 375.38 117.92 376.76 117.92 L 411.76 117.92 C 413.14 117.92 414.26 116.8 414.26 115.42 L 414.26 109.62 C 414.26 108.24 413.14 107.12 411.76 107.12 L 376.76 107.12 C 375.38 107.12 374.26 108.24 374.26 109.62 M 374.26 109.62"/></g><g style="stroke-width: 1.0;stroke: rgb(0,0,0);stroke-opacity: 0; fill: none" transform="matrix(1,0,0,1,0,0)" clip-path="url(#clip-2)"><path d="M 374.26 109.62 L 374.26 115.42 C 374.26 116.8 375.38 117.92 376.76 117.92 L 411.76 117.92 C 413.14 117.92 414.26 116.8 414.26 115.42 L 414.26 109.62 C 414.26 108.24 413.14 107.12 411.76 107.12 L 376.76 107.12 C 375.38 107.12 374.26 108.24 374.26 109.62 M 374.26 109.62"/></g><g transform="matrix(1,0,0,1,0,0)"><text x="374.26" y="118.17" style="fill: rgb(255,0,0); font-family: Lucida Sans; font-size: 11px; " text-rendering="auto" clip-path="url(#clip-2)">giscard</text></g><g style="fill: rgb(0,0,0);fill-opacity: 0; stroke: none" transform="matrix(1,0,0,1,0,0)" clip-path="url(#clip-2)"><path d="M 501.91 320.86 L 501.91 326.66 C 501.91 328.04 503.03 329.16 504.41 329.16 L 545.41 329.16 C 546.79 329.16 547.91 328.04 547.91 326.66 L 547.91 320.86 C 547.91 319.48 546.79 318.36 545.41 318.36 L 504.41 318.36 C 503.03 318.36 501.91 319.48 501.91 320.86 M 501.91 320.86"/></g><g style="stroke-width: 1.0;stroke: rgb(0,0,0);stroke-opacity: 0; fill: none" transform="matrix(1,0,0,1,0,0)" clip-path="url(#clip-2)"><path d="M 501.91 320.86 L 501.91 326.66 C 501.91 328.04 503.03 329.16 504.41 329.16 L 545.41 329.16 C 546.79 329.16 547.91 328.04 547.91 326.66 L 547.91 320.86 C 547.91 319.48 546.79 318.36 545.41 318.36 L 504.41 318.36 C 503.03 318.36 501.91 319.48 501.91 320.86 M 501.91 320.86"/></g><g transform="matrix(1,0,0,1,0,0)"><text x="501.91" y="329.41" style="fill: rgb(255,0,0); font-family: Lucida Sans; font-size: 11px; " text-rendering="auto" clip-path="url(#clip-2)">hollande</text></g><g style="fill: rgb(0,0,0);fill-opacity: 0; stroke: none" transform="matrix(1,0,0,1,0,0)" clip-path="url(#clip-2)"><path d="M 343.6 250.11 L 343.6 255.91 C 343.6 257.29 344.72 258.41 346.1 258.41 L 398.1 258.41 C 399.48 258.41 400.6 257.29 400.6 255.91 L 400.6 250.11 C 400.6 248.73 399.48 247.61 398.1 247.61 L 346.1 247.61 C 344.72 247.61 343.6 248.73 343.6 250.11 M 343.6 250.11"/></g><g style="stroke-width: 1.0;stroke: rgb(0,0,0);stroke-opacity: 0; fill: none" transform="matrix(1,0,0,1,0,0)" clip-path="url(#clip-2)"><path d="M 343.6 250.11 L 343.6 255.91 C 343.6 257.29 344.72 258.41 346.1 258.41 L 398.1 258.41 C 399.48 258.41 400.6 257.29 400.6 255.91 L 400.6 250.11 C 400.6 248.73 399.48 247.61 398.1 247.61 L 346.1 247.61 C 344.72 247.61 343.6 248.73 343.6 250.11 M 343.6 250.11"/></g><g transform="matrix(1,0,0,1,0,0)"><text x="343.6" y="258.67" style="fill: rgb(255,0,0); font-family: Lucida Sans; font-size: 11px; " text-rendering="auto" clip-path="url(#clip-2)">mitterrand</text></g><g style="fill: rgb(0,0,0);fill-opacity: 0; stroke: none" transform="matrix(1,0,0,1,0,0)" clip-path="url(#clip-2)"><path d="M 322.31 231.44 L 322.31 237.24 C 322.31 238.62 323.43 239.74 324.81 239.74 L 374.81 239.74 C 376.19 239.74 377.31 238.62 377.31 237.24 L 377.31 231.44 C 377.31 230.06 376.19 228.94 374.81 228.94 L 324.81 228.94 C 323.43 228.94 322.31 230.06 322.31 231.44 M 322.31 231.44"/></g><g style="stroke-width: 1.0;stroke: rgb(0,0,0);stroke-opacity: 0; fill: none" transform="matrix(1,0,0,1,0,0)" clip-path="url(#clip-2)"><path d="M 322.31 231.44 L 322.31 237.24 C 322.31 238.62 323.43 239.74 324.81 239.74 L 374.81 239.74 C 376.19 239.74 377.31 238.62 377.31 237.24 L 377.31 231.44 C 377.31 230.06 376.19 228.94 374.81 228.94 L 324.81 228.94 C 323.43 228.94 322.31 230.06 322.31 231.44 M 322.31 231.44"/></g><g transform="matrix(1,0,0,1,0,0)"><text x="322.31" y="239.99" style="fill: rgb(255,0,0); font-family: Lucida Sans; font-size: 11px; " text-rendering="auto" clip-path="url(#clip-2)">pompidou</text></g><g style="fill: rgb(0,0,0);fill-opacity: 0; stroke: none" transform="matrix(1,0,0,1,0,0)" clip-path="url(#clip-2)"><path d="M 478.24 274.28 L 478.24 280.08 C 478.24 281.46 479.36 282.58 480.74 282.58 L 517.74 282.58 C 519.12 282.58 520.24 281.46 520.24 280.08 L 520.24 274.28 C 520.24 272.9 519.12 271.78 517.74 271.78 L 480.74 271.78 C 479.36 271.78 478.24 272.9 478.24 274.28 M 478.24 274.28"/></g><g style="stroke-width: 1.0;stroke: rgb(0,0,0);stroke-opacity: 0; fill: none" transform="matrix(1,0,0,1,0,0)" clip-path="url(#clip-2)"><path d="M 478.24 274.28 L 478.24 280.08 C 478.24 281.46 479.36 282.58 480.74 282.58 L 517.74 282.58 C 519.12 282.58 520.24 281.46 520.24 280.08 L 520.24 274.28 C 520.24 272.9 519.12 271.78 517.74 271.78 L 480.74 271.78 C 479.36 271.78 478.24 272.9 478.24 274.28 M 478.24 274.28"/></g><g transform="matrix(1,0,0,1,0,0)"><text x="478.24" y="282.84" style="fill: rgb(255,0,0); font-family: Lucida Sans; font-size: 11px; " text-rendering="auto" clip-path="url(#clip-2)">sarkozy</text></g><line x1="234.46" y1="337.51" x2="234.46" y2="104.97" style="stroke-width: 0.5;stroke: rgb(128,128,128);stroke-opacity: 1;stroke-dasharray: 2.0;" transform="matrix(1,0,0,1,0,0)" clip-path="url(#clip-2)"/><line x1="534.35" y1="337.51" x2="534.35" y2="104.97" style="stroke-width: 0.5;stroke: rgb(128,128,128);stroke-opacity: 1;stroke-dasharray: 2.0;" transform="matrix(1,0,0,1,0,0)" clip-path="url(#clip-2)"/><line x1="234.46" y1="337.51" x2="534.35" y2="337.51" style="stroke-width: 0.5;stroke: rgb(128,128,128);stroke-opacity: 1;stroke-dasharray: 2.0;" transform="matrix(1,0,0,1,0,0)" clip-path="url(#clip-2)"/><line x1="234.46" y1="104.97" x2="534.35" y2="104.97" style="stroke-width: 0.5;stroke: rgb(128,128,128);stroke-opacity: 1;stroke-dasharray: 2.0;" transform="matrix(1,0,0,1,0,0)" clip-path="url(#clip-2)"/></svg>
