<!DOCTYPE svg PUBLIC "-//W3C//DTD SVG 1.1//EN" "http://www.w3.org/Graphics/SVG/1.1/DTD/svg11.dtd">
<svg style="stroke-linecap:square;" xmlns="http://www.w3.org/2000/svg" xmlns:xlink="http://www.w3.org/1999/xlink" width="1114" height="744">
<defs><clipPath id="clip-0"><path d="M 0 0 L 1114 0 L 1114 744 L 0 744 L 0 0 M 0 0"/></clipPath>
<clipPath id="clip-1"><path d="M 787.57 516.43 L 787.57 1630.43 L 43.57 1630.43 L 43.57 516.43 L 787.57 516.43 M 787.57 516.43"/></clipPath>
<clipPath id="clip-2"><path d="M 924.71 379.29 L 924.71 1493.29 L 180.71 1493.29 L 180.71 379.29 L 924.71 379.29 M 924.71 379.29"/></clipPath>
<clipPath id="clip-3"><path d="M 1061.86 242.14 L 1061.86 1356.14 L 317.86 1356.14 L 317.86 242.14 L 1061.86 242.14 M 1061.86 242.14"/></clipPath>
<clipPath id="clip-4"><path d="M 1199 105 L 1199 1219 L 455 1219 L 455 105 L 1199 105 M 1199 105"/></clipPath>
<clipPath id="clip-5"><path d="M 1336.14 -32.14 L 1336.14 1081.86 L 592.14 1081.86 L 592.14 -32.14 L 1336.14 -32.14 M 1336.14 -32.14"/></clipPath>
<clipPath id="clip-6"><path d="M 1473.29 -169.29 L 1473.29 944.71 L 729.29 944.71 L 729.29 -169.29 L 1473.29 -169.29 M 1473.29 -169.29"/></clipPath>
<clipPath id="clip-7"><path d="M 1610.43 -306.43 L 1610.43 807.57 L 866.43 807.57 L 866.43 -306.43 L 1610.43 -306.43 M 1610.43 -306.43"/></clipPath>
<clipPath id="clip-8"><path d="M 363.5 318.5 L 363.5 1432.5 L -380.5 1432.5 L -380.5 318.5 L 363.5 318.5 M 363.5 318.5"/></clipPath>
<clipPath id="clip-9"><path d="M 67 42 L 67 640 L 1027 640 L 1027 42 M 67 42"/></clipPath>
</defs>
<rect x="0" y="0" width="1114" height="744" style="fill: rgb(255,255,255);fill-opacity: 1" transform="matrix(1,0,0,1,0,0)" clip-path="url(#clip-0)"/><g transform="matrix(1,0,0,1,0,0)"><text x="490.5" y="26.24" style="fill: rgb(75,75,109); font-family: Lucida Sans; font-size: 16px; font-weight: bold; " text-rendering="auto" clip-path="url(#clip-0)">[France, Europe]</text></g><rect x="1047" y="368" width="57" height="40" style="fill: rgb(255,255,255);fill-opacity: 1" transform="matrix(1,0,0,1,0,0)" clip-path="url(#clip-0)"/><g style="stroke-width: 1.0;stroke: rgb(192,192,192);stroke-opacity: 1; fill: none" transform="matrix(1,0,0,1,0,0)" clip-path="url(#clip-0)"><path d="M 1047 373 L 1047 403 C 1047 405.76 1049.24 408 1052 408 L 1099 408 C 1101.76 408 1104 405.76 1104 403 L 1104 373 C 1104 370.24 1101.76 368 1099 368 L 1052 368 C 1049.24 368 1047 370.24 1047 373 M 1047 373"/></g><g style="fill: rgb(255,0,0);fill-opacity: 1; stroke: none" transform="matrix(1,0,0,1,0,0)" clip-path="url(#clip-0)"><path d="M 1051 374 L 1057 374 L 1057 384 L 1051 384 L 1051 374 M 1051 374"/></g><g transform="matrix(1,0,0,1,0,0)"><text x="1061" y="382.48" style="fill: rgb(39,75,109); font-family: Lucida Sans; font-size: 11px; font-weight: bold; " text-rendering="auto" clip-path="url(#clip-0)">France</text></g><g style="fill: rgb(0,0,255);fill-opacity: 1; stroke: none" transform="matrix(1,0,0,1,0,0)" clip-path="url(#clip-0)"><path d="M 1051 392 L 1057 392 L 1057 402 L 1051 402 L 1051 392 M 1051 392"/></g><g transform="matrix(1,0,0,1,0,0)"><text x="1061" y="400.48" style="fill: rgb(39,75,109); font-family: Lucida Sans; font-size: 11px; font-weight: bold; " text-rendering="auto" clip-path="url(#clip-0)">Europe</text></g><rect x="67" y="42" width="960" height="598" style="fill: rgb(255,255,255);fill-opacity: 1" transform="matrix(1,0,0,1,0,0)" clip-path="url(#clip-0)"/><line x1="67" y1="640" x2="1027" y2="640" style="stroke-width: 0.5;stroke: rgb(192,208,224);stroke-opacity: 1;" transform="matrix(1,0,0,1,0,0)" clip-path="url(#clip-0)"/><g style="fill: rgb(102,102,102);fill-opacity: 1; stroke: none" transform="matrix(0,-1,1,0,-516.428574,787.571426)" clip-path="url(#clip-1)"><path d="M 106.92 656.55 Q 105.93 656.82 105.09 656.82 Q 103.67 656.82 102.85 655.98 Q 102.04 655.15 102.04 653.73 Q 102.04 652.27 102.88 651.46 Q 103.73 650.65 105.21 650.65 Q 105.93 650.65 106.87 650.88 L 106.87 652.02 Q 105.88 651.71 105.31 651.71 Q 104.59 651.71 104.16 652.26 Q 103.73 652.8 103.73 653.71 Q 103.73 654.65 104.2 655.2 Q 104.67 655.76 105.45 655.76 Q 106.17 655.76 106.92 655.45 L 106.92 656.55 M 106.92 656.55 M 108.57 656.68 L 108.57 648.2 L 110.15 648.2 L 110.15 651.9 Q 110.93 650.65 112.17 650.65 Q 112.95 650.65 113.41 651.15 Q 113.87 651.65 113.87 652.51 L 113.87 656.68 L 112.27 656.68 L 112.27 652.9 Q 112.27 651.9 111.62 651.9 Q 110.85 651.9 110.15 652.96 L 110.15 656.68 L 108.57 656.68 M 108.57 656.68 M 115.57 656.68 L 115.57 650.79 L 117.15 650.79 L 117.15 656.68 L 115.57 656.68 M 115.57 656.68 M 115.57 649.79 L 115.57 648.46 L 117.15 648.46 L 117.15 649.79 L 115.57 649.79 M 115.57 649.79 M 119.57 656.68 L 119.57 650.79 L 121.15 650.79 L 121.15 651.9 Q 121.77 650.65 123.04 650.65 Q 123.18 650.65 123.34 650.68 L 123.34 652.1 Q 122.99 651.98 122.7 651.98 Q 121.76 651.98 121.15 652.93 L 121.15 656.68 L 119.57 656.68 M 119.57 656.68 M 127.46 656.04 Q 126.67 656.82 125.76 656.82 Q 124.98 656.82 124.49 656.34 Q 124.01 655.87 124.01 655.12 Q 124.01 654.13 124.79 653.61 Q 125.57 653.09 127.02 653.09 L 127.46 653.09 L 127.46 652.54 Q 127.46 651.63 126.42 651.63 Q 125.48 651.63 124.52 652.15 L 124.52 651.05 Q 125.6 650.65 126.67 650.65 Q 128.98 650.65 128.98 652.49 L 128.98 655.1 Q 128.98 655.79 129.43 655.79 Q 129.51 655.79 129.63 655.77 L 129.68 656.66 Q 129.17 656.82 128.77 656.82 Q 127.81 656.82 127.52 656.04 L 127.46 656.04 M 127.46 656.04 M 127.46 655.2 L 127.46 653.99 L 127.07 653.99 Q 125.54 653.99 125.54 654.96 Q 125.54 655.29 125.76 655.51 Q 125.98 655.73 126.31 655.73 Q 126.87 655.73 127.46 655.2 M 127.46 655.2 M 134.92 656.55 Q 133.93 656.82 133.09 656.82 Q 131.67 656.82 130.85 655.98 Q 130.04 655.15 130.04 653.73 Q 130.04 652.27 130.88 651.46 Q 131.73 650.65 133.21 650.65 Q 133.93 650.65 134.87 650.88 L 134.87 652.02 Q 133.88 651.71 133.31 651.71 Q 132.59 651.71 132.16 652.26 Q 131.73 652.8 131.73 653.71 Q 131.73 654.65 132.2 655.2 Q 132.67 655.76 133.45 655.76 Q 134.17 655.76 134.92 655.45 L 134.92 656.55 M 134.92 656.55"/></g><line x1="204.14" y1="645" x2="204.14" y2="640" style="stroke-width: 0.5;stroke: rgb(192,208,224);stroke-opacity: 1;" transform="matrix(1,0,0,1,0,0)" clip-path="url(#clip-0)"/><line x1="67" y1="645" x2="67" y2="640" style="stroke-width: 0.5;stroke: rgb(192,208,224);stroke-opacity: 1;" transform="matrix(1,0,0,1,0,0)" clip-path="url(#clip-0)"/><g style="fill: rgb(102,102,102);fill-opacity: 1; stroke: none" transform="matrix(0,-1,1,0,-379.285706,924.714294)" clip-path="url(#clip-2)"><path d="M 263.42 656.68 L 263.42 655.57 Q 262.81 656.82 261.5 656.82 Q 260.43 656.82 259.82 656.04 Q 259.21 655.26 259.21 653.9 Q 259.21 652.41 259.9 651.53 Q 260.59 650.65 261.75 650.65 Q 262.67 650.65 263.42 651.38 L 263.42 648.2 L 265.01 648.2 L 265.01 656.68 L 263.42 656.68 M 263.42 656.68 M 263.42 652.32 Q 262.84 651.68 262.18 651.68 Q 261.6 651.68 261.25 652.24 Q 260.9 652.8 260.9 653.76 Q 260.9 655.57 262.07 655.57 Q 262.78 655.57 263.42 654.66 L 263.42 652.32 M 263.42 652.32 M 266.75 658.51 L 266.89 657.35 Q 267.87 657.8 268.76 657.8 Q 269.64 657.8 270.03 657.43 Q 270.42 657.05 270.42 656.21 L 270.42 655.41 Q 269.84 656.68 268.5 656.68 Q 267.45 656.68 266.83 655.89 Q 266.21 655.1 266.21 653.76 Q 266.21 652.35 266.91 651.5 Q 267.6 650.65 268.75 650.65 Q 269.65 650.65 270.42 651.38 L 270.59 650.79 L 272.01 650.79 L 272.01 655.29 Q 272.01 656.63 271.85 657.23 Q 271.68 657.82 271.21 658.24 Q 270.42 658.93 268.98 658.93 Q 267.95 658.93 266.75 658.51 M 266.75 658.51 M 270.42 654.48 L 270.42 652.3 Q 269.84 651.66 269.21 651.66 Q 268.62 651.66 268.26 652.21 Q 267.9 652.76 267.9 653.68 Q 267.9 655.41 269.01 655.41 Q 269.79 655.41 270.42 654.48 M 270.42 654.48"/></g><line x1="341.29" y1="645" x2="341.29" y2="640" style="stroke-width: 0.5;stroke: rgb(192,208,224);stroke-opacity: 1;" transform="matrix(1,0,0,1,0,0)" clip-path="url(#clip-0)"/><g style="fill: rgb(102,102,102);fill-opacity: 1; stroke: none" transform="matrix(0,-1,1,0,-242.142853,1061.857147)" clip-path="url(#clip-3)"><path d="M 369.89 658.51 L 370.03 657.35 Q 371.01 657.8 371.9 657.8 Q 372.78 657.8 373.17 657.43 Q 373.56 657.05 373.56 656.21 L 373.56 655.41 Q 372.98 656.68 371.64 656.68 Q 370.59 656.68 369.97 655.89 Q 369.36 655.1 369.36 653.76 Q 369.36 652.35 370.05 651.5 Q 370.75 650.65 371.89 650.65 Q 372.79 650.65 373.56 651.38 L 373.73 650.79 L 375.15 650.79 L 375.15 655.29 Q 375.15 656.63 374.99 657.23 Q 374.83 657.82 374.36 658.24 Q 373.56 658.93 372.12 658.93 Q 371.09 658.93 369.89 658.51 M 369.89 658.51 M 373.56 654.48 L 373.56 652.3 Q 372.98 651.66 372.36 651.66 Q 371.76 651.66 371.4 652.21 Q 371.04 652.76 371.04 653.68 Q 371.04 655.41 372.15 655.41 Q 372.94 655.41 373.56 654.48 M 373.56 654.48 M 376.86 656.68 L 376.86 650.79 L 378.44 650.79 L 378.44 656.68 L 376.86 656.68 M 376.86 656.68 M 376.86 649.79 L 376.86 648.46 L 378.44 648.46 L 378.44 649.79 L 376.86 649.79 M 376.86 649.79 M 380.7 656.49 L 380.7 655.32 Q 381.87 655.82 382.72 655.82 Q 383.69 655.82 383.69 655.15 Q 383.69 654.73 382.89 654.4 L 382.36 654.18 Q 381.47 653.84 381.09 653.43 Q 380.72 653.02 380.72 652.41 Q 380.72 651.57 381.36 651.11 Q 382 650.65 383.15 650.65 Q 383.87 650.65 384.86 650.85 L 384.86 651.98 Q 383.9 651.65 383.28 651.65 Q 382.29 651.65 382.29 652.26 Q 382.29 652.66 383.01 652.93 L 383.48 653.12 Q 384.51 653.51 384.92 653.91 Q 385.33 654.3 385.33 654.95 Q 385.33 655.77 384.64 656.3 Q 383.95 656.82 382.84 656.82 Q 381.78 656.82 380.7 656.49 M 380.7 656.49 M 391.2 656.55 Q 390.22 656.82 389.37 656.82 Q 387.95 656.82 387.14 655.98 Q 386.33 655.15 386.33 653.73 Q 386.33 652.27 387.17 651.46 Q 388.01 650.65 389.5 650.65 Q 390.22 650.65 391.15 650.88 L 391.15 652.02 Q 390.17 651.71 389.59 651.71 Q 388.87 651.71 388.44 652.26 Q 388.01 652.8 388.01 653.71 Q 388.01 654.65 388.48 655.2 Q 388.95 655.76 389.73 655.76 Q 390.45 655.76 391.2 655.45 L 391.2 656.55 M 391.2 656.55 M 395.75 656.04 Q 394.95 656.82 394.04 656.82 Q 393.26 656.82 392.78 656.34 Q 392.29 655.87 392.29 655.12 Q 392.29 654.13 393.08 653.61 Q 393.86 653.09 395.31 653.09 L 395.75 653.09 L 395.75 652.54 Q 395.75 651.63 394.7 651.63 Q 393.76 651.63 392.81 652.15 L 392.81 651.05 Q 393.89 650.65 394.95 650.65 Q 397.26 650.65 397.26 652.49 L 397.26 655.1 Q 397.26 655.79 397.72 655.79 Q 397.79 655.79 397.92 655.77 L 397.97 656.66 Q 397.45 656.82 397.06 656.82 Q 396.09 656.82 395.81 656.04 L 395.75 656.04 M 395.75 656.04 M 395.75 655.2 L 395.75 653.99 L 395.36 653.99 Q 393.83 653.99 393.83 654.96 Q 393.83 655.29 394.04 655.51 Q 394.26 655.73 394.59 655.73 Q 395.15 655.73 395.75 655.2 M 395.75 655.2 M 398.86 656.68 L 398.86 650.79 L 400.44 650.79 L 400.44 651.9 Q 401.06 650.65 402.33 650.65 Q 402.47 650.65 402.62 650.68 L 402.62 652.1 Q 402.28 651.98 401.98 651.98 Q 401.04 651.98 400.44 652.93 L 400.44 656.68 L 398.86 656.68 M 398.86 656.68 M 407.56 656.68 L 407.56 655.57 Q 406.95 656.82 405.64 656.82 Q 404.58 656.82 403.97 656.04 Q 403.36 655.26 403.36 653.9 Q 403.36 652.41 404.04 651.53 Q 404.73 650.65 405.89 650.65 Q 406.81 650.65 407.56 651.38 L 407.56 648.2 L 409.15 648.2 L 409.15 656.68 L 407.56 656.68 M 407.56 656.68 M 407.56 652.32 Q 406.98 651.68 406.33 651.68 Q 405.75 651.68 405.4 652.24 Q 405.04 652.8 405.04 653.76 Q 405.04 655.57 406.22 655.57 Q 406.92 655.57 407.56 654.66 L 407.56 652.32 M 407.56 652.32"/></g><line x1="478.43" y1="645" x2="478.43" y2="640" style="stroke-width: 0.5;stroke: rgb(192,208,224);stroke-opacity: 1;" transform="matrix(1,0,0,1,0,0)" clip-path="url(#clip-0)"/><g style="fill: rgb(102,102,102);fill-opacity: 1; stroke: none" transform="matrix(0,-1,1,0,-105,1199)" clip-path="url(#clip-4)"><path d="M 500 656.68 L 500 648.2 L 501.58 648.2 L 501.58 651.9 Q 502.36 650.65 503.59 650.65 Q 504.38 650.65 504.84 651.15 Q 505.3 651.65 505.3 652.51 L 505.3 656.68 L 503.7 656.68 L 503.7 652.9 Q 503.7 651.9 503.05 651.9 Q 502.28 651.9 501.58 652.96 L 501.58 656.68 L 500 656.68 M 500 656.68 M 509.47 656.82 Q 508.09 656.82 507.28 655.98 Q 506.47 655.15 506.47 653.73 Q 506.47 652.3 507.28 651.48 Q 508.09 650.65 509.5 650.65 Q 510.92 650.65 511.74 651.48 Q 512.56 652.3 512.56 653.73 Q 512.56 655.16 511.74 655.99 Q 510.92 656.82 509.47 656.82 M 509.47 656.82 M 509.5 655.82 Q 510.86 655.82 510.86 653.73 Q 510.86 652.76 510.5 652.2 Q 510.14 651.65 509.5 651.65 Q 508.88 651.65 508.52 652.2 Q 508.16 652.76 508.16 653.73 Q 508.16 654.7 508.52 655.26 Q 508.88 655.82 509.5 655.82 M 509.5 655.82 M 514 656.68 L 514 648.2 L 515.58 648.2 L 515.58 656.68 L 514 656.68 M 514 656.68 M 518 656.68 L 518 648.2 L 519.58 648.2 L 519.58 656.68 L 518 656.68 M 518 656.68 M 524.89 656.04 Q 524.09 656.82 523.19 656.82 Q 522.41 656.82 521.92 656.34 Q 521.44 655.87 521.44 655.12 Q 521.44 654.13 522.22 653.61 Q 523 653.09 524.45 653.09 L 524.89 653.09 L 524.89 652.54 Q 524.89 651.63 523.84 651.63 Q 522.91 651.63 521.95 652.15 L 521.95 651.05 Q 523.03 650.65 524.09 650.65 Q 526.41 650.65 526.41 652.49 L 526.41 655.1 Q 526.41 655.79 526.86 655.79 Q 526.94 655.79 527.06 655.77 L 527.11 656.66 Q 526.59 656.82 526.2 656.82 Q 525.23 656.82 524.95 656.04 L 524.89 656.04 M 524.89 656.04 M 524.89 655.2 L 524.89 653.99 L 524.5 653.99 Q 522.97 653.99 522.97 654.96 Q 522.97 655.29 523.19 655.51 Q 523.41 655.73 523.73 655.73 Q 524.3 655.73 524.89 655.2 M 524.89 655.2 M 528 656.68 L 528 650.79 L 529.58 650.79 L 529.58 651.9 Q 530.36 650.65 531.59 650.65 Q 532.38 650.65 532.84 651.15 Q 533.3 651.65 533.3 652.51 L 533.3 656.68 L 531.7 656.68 L 531.7 652.9 Q 531.7 651.9 531.05 651.9 Q 530.28 651.9 529.58 652.96 L 529.58 656.68 L 528 656.68 M 528 656.68 M 538.7 656.68 L 538.7 655.57 Q 538.09 656.82 536.78 656.82 Q 535.72 656.82 535.11 656.04 Q 534.5 655.26 534.5 653.9 Q 534.5 652.41 535.19 651.53 Q 535.88 650.65 537.03 650.65 Q 537.95 650.65 538.7 651.38 L 538.7 648.2 L 540.3 648.2 L 540.3 656.68 L 538.7 656.68 M 538.7 656.68 M 538.7 652.32 Q 538.12 651.68 537.47 651.68 Q 536.89 651.68 536.54 652.24 Q 536.19 652.8 536.19 653.76 Q 536.19 655.57 537.36 655.57 Q 538.06 655.57 538.7 654.66 L 538.7 652.32 M 538.7 652.32 M 546.8 656.48 Q 545.66 656.82 544.64 656.82 Q 543.17 656.82 542.32 655.98 Q 541.47 655.13 541.47 653.7 Q 541.47 652.32 542.25 651.48 Q 543.03 650.65 544.31 650.65 Q 545.61 650.65 546.2 651.46 Q 546.8 652.27 546.8 654.05 L 543.14 654.05 Q 543.3 655.73 544.98 655.73 Q 545.8 655.73 546.8 655.37 L 546.8 656.48 M 546.8 656.48 M 543.11 653.15 L 545.23 653.15 Q 545.23 651.65 544.27 651.65 Q 543.27 651.65 543.11 653.15 M 543.11 653.15"/></g><line x1="615.57" y1="645" x2="615.57" y2="640" style="stroke-width: 0.5;stroke: rgb(192,208,224);stroke-opacity: 1;" transform="matrix(1,0,0,1,0,0)" clip-path="url(#clip-0)"/><g style="fill: rgb(102,102,102);fill-opacity: 1; stroke: none" transform="matrix(0,-1,1,0,32.142883,1336.142883)" clip-path="url(#clip-5)"><path d="M 626.14 656.68 L 626.14 650.79 L 627.66 650.79 L 627.66 651.9 Q 628.36 650.65 629.64 650.65 Q 630.31 650.65 630.74 650.98 Q 631.17 651.3 631.27 651.9 Q 632.1 650.65 633.27 650.65 Q 634.89 650.65 634.89 652.43 L 634.89 656.68 L 633.36 656.68 L 633.36 652.95 Q 633.36 651.9 632.66 651.9 Q 631.96 651.9 631.27 652.93 L 631.27 656.68 L 629.75 656.68 L 629.75 652.95 Q 629.75 651.9 629.05 651.9 Q 628.35 651.9 627.66 652.93 L 627.66 656.68 L 626.14 656.68 M 626.14 656.68 M 637.14 656.68 L 637.14 650.79 L 638.72 650.79 L 638.72 656.68 L 637.14 656.68 M 637.14 656.68 M 637.14 649.79 L 637.14 648.46 L 638.72 648.46 L 638.72 649.79 L 637.14 649.79 M 637.14 649.79 M 644.17 656.65 Q 643.61 656.82 643.28 656.82 Q 641.21 656.82 641.21 654.88 L 641.21 651.77 L 640.55 651.77 L 640.55 650.79 L 641.21 650.79 L 641.21 649.79 L 642.8 649.6 L 642.8 650.79 L 644.06 650.79 L 644.06 651.77 L 642.8 651.77 L 642.8 654.66 Q 642.8 655.76 643.69 655.76 Q 643.89 655.76 644.17 655.68 L 644.17 656.65 M 644.17 656.65 M 648.17 656.65 Q 647.61 656.82 647.28 656.82 Q 645.21 656.82 645.21 654.88 L 645.21 651.77 L 644.55 651.77 L 644.55 650.79 L 645.21 650.79 L 645.21 649.79 L 646.8 649.6 L 646.8 650.79 L 648.06 650.79 L 648.06 651.77 L 646.8 651.77 L 646.8 654.66 Q 646.8 655.76 647.69 655.76 Q 647.89 655.76 648.17 655.68 L 648.17 656.65 M 648.17 656.65 M 653.94 656.48 Q 652.8 656.82 651.78 656.82 Q 650.31 656.82 649.46 655.98 Q 648.61 655.13 648.61 653.7 Q 648.61 652.32 649.39 651.48 Q 650.17 650.65 651.46 650.65 Q 652.75 650.65 653.35 651.46 Q 653.94 652.27 653.94 654.05 L 650.28 654.05 Q 650.44 655.73 652.13 655.73 Q 652.94 655.73 653.94 655.37 L 653.94 656.48 M 653.94 656.48 M 650.25 653.15 L 652.38 653.15 Q 652.38 651.65 651.41 651.65 Q 650.41 651.65 650.25 653.15 M 650.25 653.15 M 655.14 656.68 L 655.14 650.79 L 656.72 650.79 L 656.72 651.9 Q 657.35 650.65 658.61 650.65 Q 658.75 650.65 658.91 650.68 L 658.91 652.1 Q 658.56 651.98 658.27 651.98 Q 657.33 651.98 656.72 652.93 L 656.72 656.68 L 655.14 656.68 M 655.14 656.68 M 660.14 656.68 L 660.14 650.79 L 661.72 650.79 L 661.72 651.9 Q 662.35 650.65 663.61 650.65 Q 663.75 650.65 663.91 650.68 L 663.91 652.1 Q 663.56 651.98 663.27 651.98 Q 662.33 651.98 661.72 652.93 L 661.72 656.68 L 660.14 656.68 M 660.14 656.68 M 668.03 656.04 Q 667.24 656.82 666.33 656.82 Q 665.55 656.82 665.06 656.34 Q 664.58 655.87 664.58 655.12 Q 664.58 654.13 665.36 653.61 Q 666.14 653.09 667.6 653.09 L 668.03 653.09 L 668.03 652.54 Q 668.03 651.63 666.99 651.63 Q 666.05 651.63 665.1 652.15 L 665.1 651.05 Q 666.17 650.65 667.24 650.65 Q 669.55 650.65 669.55 652.49 L 669.55 655.1 Q 669.55 655.79 670 655.79 Q 670.08 655.79 670.21 655.77 L 670.25 656.66 Q 669.74 656.82 669.35 656.82 Q 668.38 656.82 668.1 656.04 L 668.03 656.04 M 668.03 656.04 M 668.03 655.2 L 668.03 653.99 L 667.64 653.99 Q 666.11 653.99 666.11 654.96 Q 666.11 655.29 666.33 655.51 Q 666.55 655.73 666.88 655.73 Q 667.44 655.73 668.03 655.2 M 668.03 655.2 M 671.14 656.68 L 671.14 650.79 L 672.72 650.79 L 672.72 651.9 Q 673.5 650.65 674.74 650.65 Q 675.52 650.65 675.98 651.15 Q 676.44 651.65 676.44 652.51 L 676.44 656.68 L 674.85 656.68 L 674.85 652.9 Q 674.85 651.9 674.19 651.9 Q 673.42 651.9 672.72 652.96 L 672.72 656.68 L 671.14 656.68 M 671.14 656.68 M 681.85 656.68 L 681.85 655.57 Q 681.24 656.82 679.92 656.82 Q 678.86 656.82 678.25 656.04 Q 677.64 655.26 677.64 653.9 Q 677.64 652.41 678.33 651.53 Q 679.02 650.65 680.17 650.65 Q 681.1 650.65 681.85 651.38 L 681.85 648.2 L 683.44 648.2 L 683.44 656.68 L 681.85 656.68 M 681.85 656.68 M 681.85 652.32 Q 681.27 651.68 680.61 651.68 Q 680.03 651.68 679.68 652.24 Q 679.33 652.8 679.33 653.76 Q 679.33 655.57 680.5 655.57 Q 681.21 655.57 681.85 654.66 L 681.85 652.32 M 681.85 652.32"/></g><line x1="752.71" y1="645" x2="752.71" y2="640" style="stroke-width: 0.5;stroke: rgb(192,208,224);stroke-opacity: 1;" transform="matrix(1,0,0,1,0,0)" clip-path="url(#clip-0)"/><g style="fill: rgb(102,102,102);fill-opacity: 1; stroke: none" transform="matrix(0,-1,1,0,169.285706,1473.285706)" clip-path="url(#clip-6)"><path d="M 765.29 658.8 L 765.29 650.79 L 766.86 650.79 L 766.86 651.9 Q 767.49 650.65 768.8 650.65 Q 769.86 650.65 770.47 651.43 Q 771.08 652.21 771.08 653.57 Q 771.08 655.05 770.4 655.94 Q 769.71 656.82 768.55 656.82 Q 767.61 656.82 766.86 656.09 L 766.86 658.8 L 765.29 658.8 M 765.29 658.8 M 766.86 655.13 Q 767.44 655.79 768.1 655.79 Q 768.69 655.79 769.04 655.22 Q 769.4 654.65 769.4 653.71 Q 769.4 651.9 768.22 651.9 Q 767.52 651.9 766.86 652.8 L 766.86 655.13 M 766.86 655.13 M 774.75 656.82 Q 773.38 656.82 772.57 655.98 Q 771.75 655.15 771.75 653.73 Q 771.75 652.3 772.57 651.48 Q 773.38 650.65 774.79 650.65 Q 776.21 650.65 777.03 651.48 Q 777.85 652.3 777.85 653.73 Q 777.85 655.16 777.03 655.99 Q 776.21 656.82 774.75 656.82 M 774.75 656.82 M 774.79 655.82 Q 776.15 655.82 776.15 653.73 Q 776.15 652.76 775.79 652.2 Q 775.43 651.65 774.79 651.65 Q 774.16 651.65 773.8 652.2 Q 773.44 652.76 773.44 653.73 Q 773.44 654.7 773.8 655.26 Q 774.16 655.82 774.79 655.82 M 774.79 655.82 M 779.29 656.68 L 779.29 650.79 L 780.8 650.79 L 780.8 651.9 Q 781.5 650.65 782.79 650.65 Q 783.46 650.65 783.89 650.98 Q 784.32 651.3 784.41 651.9 Q 785.24 650.65 786.41 650.65 Q 788.04 650.65 788.04 652.43 L 788.04 656.68 L 786.5 656.68 L 786.5 652.95 Q 786.5 651.9 785.8 651.9 Q 785.1 651.9 784.41 652.93 L 784.41 656.68 L 782.9 656.68 L 782.9 652.95 Q 782.9 651.9 782.19 651.9 Q 781.49 651.9 780.8 652.93 L 780.8 656.68 L 779.29 656.68 M 779.29 656.68 M 790.29 658.8 L 790.29 650.79 L 791.86 650.79 L 791.86 651.9 Q 792.49 650.65 793.8 650.65 Q 794.86 650.65 795.47 651.43 Q 796.08 652.21 796.08 653.57 Q 796.08 655.05 795.4 655.94 Q 794.71 656.82 793.55 656.82 Q 792.61 656.82 791.86 656.09 L 791.86 658.8 L 790.29 658.8 M 790.29 658.8 M 791.86 655.13 Q 792.44 655.79 793.1 655.79 Q 793.69 655.79 794.04 655.22 Q 794.4 654.65 794.4 653.71 Q 794.4 651.9 793.22 651.9 Q 792.52 651.9 791.86 652.8 L 791.86 655.13 M 791.86 655.13 M 797.29 656.68 L 797.29 650.79 L 798.86 650.79 L 798.86 656.68 L 797.29 656.68 M 797.29 656.68 M 797.29 649.79 L 797.29 648.46 L 798.86 648.46 L 798.86 649.79 L 797.29 649.79 M 797.29 649.79 M 804.99 656.68 L 804.99 655.57 Q 804.38 656.82 803.07 656.82 Q 802 656.82 801.4 656.04 Q 800.79 655.26 800.79 653.9 Q 800.79 652.41 801.47 651.53 Q 802.16 650.65 803.32 650.65 Q 804.24 650.65 804.99 651.38 L 804.99 648.2 L 806.58 648.2 L 806.58 656.68 L 804.99 656.68 M 804.99 656.68 M 804.99 652.32 Q 804.41 651.68 803.75 651.68 Q 803.18 651.68 802.82 652.24 Q 802.47 652.8 802.47 653.76 Q 802.47 655.57 803.65 655.57 Q 804.35 655.57 804.99 654.66 L 804.99 652.32 M 804.99 652.32 M 810.75 656.82 Q 809.38 656.82 808.57 655.98 Q 807.75 655.15 807.75 653.73 Q 807.75 652.3 808.57 651.48 Q 809.38 650.65 810.79 650.65 Q 812.21 650.65 813.03 651.48 Q 813.85 652.3 813.85 653.73 Q 813.85 655.16 813.03 655.99 Q 812.21 656.82 810.75 656.82 M 810.75 656.82 M 810.79 655.82 Q 812.15 655.82 812.15 653.73 Q 812.15 652.76 811.79 652.2 Q 811.43 651.65 810.79 651.65 Q 810.16 651.65 809.8 652.2 Q 809.44 652.76 809.44 653.73 Q 809.44 654.7 809.8 655.26 Q 810.16 655.82 810.79 655.82 M 810.79 655.82 M 818.93 656.68 L 818.93 655.57 Q 818.16 656.82 816.91 656.82 Q 816.13 656.82 815.67 656.32 Q 815.21 655.82 815.21 654.95 L 815.21 650.79 L 816.8 650.79 L 816.8 654.55 Q 816.8 655.55 817.47 655.55 Q 818.22 655.55 818.93 654.49 L 818.93 650.79 L 820.52 650.79 L 820.52 656.68 L 818.93 656.68 M 818.93 656.68"/></g><line x1="889.86" y1="645" x2="889.86" y2="640" style="stroke-width: 0.5;stroke: rgb(192,208,224);stroke-opacity: 1;" transform="matrix(1,0,0,1,0,0)" clip-path="url(#clip-0)"/><g style="fill: rgb(102,102,102);fill-opacity: 1; stroke: none" transform="matrix(0,-1,1,0,306.428589,1610.428589)" clip-path="url(#clip-7)"><path d="M 915.27 656.49 L 915.27 655.32 Q 916.44 655.82 917.29 655.82 Q 918.26 655.82 918.26 655.15 Q 918.26 654.73 917.46 654.4 L 916.93 654.18 Q 916.04 653.84 915.66 653.43 Q 915.29 653.02 915.29 652.41 Q 915.29 651.57 915.93 651.11 Q 916.57 650.65 917.73 650.65 Q 918.44 650.65 919.43 650.85 L 919.43 651.98 Q 918.48 651.65 917.85 651.65 Q 916.87 651.65 916.87 652.26 Q 916.87 652.66 917.58 652.93 L 918.05 653.12 Q 919.08 653.51 919.49 653.91 Q 919.9 654.3 919.9 654.95 Q 919.9 655.77 919.21 656.3 Q 918.52 656.82 917.41 656.82 Q 916.35 656.82 915.27 656.49 M 915.27 656.49 M 924.32 656.04 Q 923.52 656.82 922.62 656.82 Q 921.83 656.82 921.35 656.34 Q 920.87 655.87 920.87 655.12 Q 920.87 654.13 921.65 653.61 Q 922.43 653.09 923.88 653.09 L 924.32 653.09 L 924.32 652.54 Q 924.32 651.63 923.27 651.63 Q 922.33 651.63 921.38 652.15 L 921.38 651.05 Q 922.46 650.65 923.52 650.65 Q 925.83 650.65 925.83 652.49 L 925.83 655.1 Q 925.83 655.79 926.29 655.79 Q 926.37 655.79 926.49 655.77 L 926.54 656.66 Q 926.02 656.82 925.63 656.82 Q 924.66 656.82 924.38 656.04 L 924.32 656.04 M 924.32 656.04 M 924.32 655.2 L 924.32 653.99 L 923.93 653.99 Q 922.4 653.99 922.4 654.96 Q 922.4 655.29 922.62 655.51 Q 922.83 655.73 923.16 655.73 Q 923.73 655.73 924.32 655.2 M 924.32 655.2 M 927.43 656.68 L 927.43 650.79 L 929.01 650.79 L 929.01 651.9 Q 929.63 650.65 930.9 650.65 Q 931.04 650.65 931.19 650.68 L 931.19 652.1 Q 930.85 651.98 930.55 651.98 Q 929.62 651.98 929.01 652.93 L 929.01 656.68 L 927.43 656.68 M 927.43 656.68 M 932.43 656.68 L 932.43 648.2 L 934.01 648.2 L 934.01 653.54 L 934.12 653.54 L 936.21 650.79 L 937.54 650.79 L 935.6 653.3 L 938.15 656.68 L 936.21 656.68 L 934.12 653.73 L 934.01 653.73 L 934.01 656.68 L 932.43 656.68 M 932.43 656.68 M 941.9 656.82 Q 940.52 656.82 939.71 655.98 Q 938.9 655.15 938.9 653.73 Q 938.9 652.3 939.71 651.48 Q 940.52 650.65 941.93 650.65 Q 943.35 650.65 944.17 651.48 Q 944.99 652.3 944.99 653.73 Q 944.99 655.16 944.17 655.99 Q 943.35 656.82 941.9 656.82 M 941.9 656.82 M 941.93 655.82 Q 943.29 655.82 943.29 653.73 Q 943.29 652.76 942.93 652.2 Q 942.57 651.65 941.93 651.65 Q 941.3 651.65 940.94 652.2 Q 940.58 652.76 940.58 653.73 Q 940.58 654.7 940.94 655.26 Q 941.3 655.82 941.93 655.82 M 941.93 655.82 M 946.08 656.68 L 946.08 655.62 L 949.38 651.77 L 946.24 651.77 L 946.24 650.79 L 951.27 650.79 L 951.27 651.77 L 947.98 655.62 L 951.33 655.62 L 951.33 656.68 L 946.08 656.68 M 946.08 656.68 M 953.44 658.8 L 954.79 656.68 L 952.6 650.79 L 954.3 650.79 L 955.76 654.73 L 957.51 650.79 L 958.71 650.79 L 955.07 658.8 L 953.44 658.8 M 953.44 658.8"/></g><line x1="1027" y1="645" x2="1027" y2="640" style="stroke-width: 0.5;stroke: rgb(192,208,224);stroke-opacity: 1;" transform="matrix(1,0,0,1,0,0)" clip-path="url(#clip-0)"/><g transform="matrix(1,0,0,1,0,0)"><text x="524.5" y="727.84" style="fill: rgb(77,117,158); font-family: Lucida Sans; font-size: 15px; font-weight: bold; " text-rendering="auto" clip-path="url(#clip-0)">Partie</text></g><g transform="matrix(1,0,0,1,0,0)"><text x="37" y="607.17" style="fill: rgb(102,102,102); font-family: Lucida Sans; font-size: 11px; font-weight: bold; " text-rendering="auto" clip-path="url(#clip-0)">-7.0</text></g><g transform="matrix(1,0,0,1,0,0)"><text x="37" y="583.5" style="fill: rgb(102,102,102); font-family: Lucida Sans; font-size: 11px; font-weight: bold; " text-rendering="auto" clip-path="url(#clip-0)">-6.5</text></g><g transform="matrix(1,0,0,1,0,0)"><text x="37" y="559.84" style="fill: rgb(102,102,102); font-family: Lucida Sans; font-size: 11px; font-weight: bold; " text-rendering="auto" clip-path="url(#clip-0)">-6.0</text></g><g transform="matrix(1,0,0,1,0,0)"><text x="37" y="536.17" style="fill: rgb(102,102,102); font-family: Lucida Sans; font-size: 11px; font-weight: bold; " text-rendering="auto" clip-path="url(#clip-0)">-5.5</text></g><g transform="matrix(1,0,0,1,0,0)"><text x="37" y="512.51" style="fill: rgb(102,102,102); font-family: Lucida Sans; font-size: 11px; font-weight: bold; " text-rendering="auto" clip-path="url(#clip-0)">-5.0</text></g><g transform="matrix(1,0,0,1,0,0)"><text x="37" y="488.84" style="fill: rgb(102,102,102); font-family: Lucida Sans; font-size: 11px; font-weight: bold; " text-rendering="auto" clip-path="url(#clip-0)">-4.5</text></g><g transform="matrix(1,0,0,1,0,0)"><text x="37" y="465.18" style="fill: rgb(102,102,102); font-family: Lucida Sans; font-size: 11px; font-weight: bold; " text-rendering="auto" clip-path="url(#clip-0)">-4.0</text></g><g transform="matrix(1,0,0,1,0,0)"><text x="37" y="441.51" style="fill: rgb(102,102,102); font-family: Lucida Sans; font-size: 11px; font-weight: bold; " text-rendering="auto" clip-path="url(#clip-0)">-3.5</text></g><g transform="matrix(1,0,0,1,0,0)"><text x="37" y="417.85" style="fill: rgb(102,102,102); font-family: Lucida Sans; font-size: 11px; font-weight: bold; " text-rendering="auto" clip-path="url(#clip-0)">-3.0</text></g><g transform="matrix(1,0,0,1,0,0)"><text x="37" y="394.18" style="fill: rgb(102,102,102); font-family: Lucida Sans; font-size: 11px; font-weight: bold; " text-rendering="auto" clip-path="url(#clip-0)">-2.5</text></g><g transform="matrix(1,0,0,1,0,0)"><text x="37" y="370.52" style="fill: rgb(102,102,102); font-family: Lucida Sans; font-size: 11px; font-weight: bold; " text-rendering="auto" clip-path="url(#clip-0)">-2.0</text></g><g transform="matrix(1,0,0,1,0,0)"><text x="37" y="346.86" style="fill: rgb(102,102,102); font-family: Lucida Sans; font-size: 11px; font-weight: bold; " text-rendering="auto" clip-path="url(#clip-0)">-1.5</text></g><g transform="matrix(1,0,0,1,0,0)"><text x="37" y="323.19" style="fill: rgb(102,102,102); font-family: Lucida Sans; font-size: 11px; font-weight: bold; " text-rendering="auto" clip-path="url(#clip-0)">-1.0</text></g><g transform="matrix(1,0,0,1,0,0)"><text x="37" y="299.53" style="fill: rgb(102,102,102); font-family: Lucida Sans; font-size: 11px; font-weight: bold; " text-rendering="auto" clip-path="url(#clip-0)">-0.5</text></g><g transform="matrix(1,0,0,1,0,0)"><text x="44" y="275.86" style="fill: rgb(102,102,102); font-family: Lucida Sans; font-size: 11px; font-weight: bold; " text-rendering="auto" clip-path="url(#clip-0)">0.0</text></g><g transform="matrix(1,0,0,1,0,0)"><text x="44" y="252.2" style="fill: rgb(102,102,102); font-family: Lucida Sans; font-size: 11px; font-weight: bold; " text-rendering="auto" clip-path="url(#clip-0)">0.5</text></g><g transform="matrix(1,0,0,1,0,0)"><text x="44" y="228.53" style="fill: rgb(102,102,102); font-family: Lucida Sans; font-size: 11px; font-weight: bold; " text-rendering="auto" clip-path="url(#clip-0)">1.0</text></g><g transform="matrix(1,0,0,1,0,0)"><text x="44" y="204.87" style="fill: rgb(102,102,102); font-family: Lucida Sans; font-size: 11px; font-weight: bold; " text-rendering="auto" clip-path="url(#clip-0)">1.5</text></g><g transform="matrix(1,0,0,1,0,0)"><text x="44" y="181.2" style="fill: rgb(102,102,102); font-family: Lucida Sans; font-size: 11px; font-weight: bold; " text-rendering="auto" clip-path="url(#clip-0)">2.0</text></g><g transform="matrix(1,0,0,1,0,0)"><text x="44" y="157.54" style="fill: rgb(102,102,102); font-family: Lucida Sans; font-size: 11px; font-weight: bold; " text-rendering="auto" clip-path="url(#clip-0)">2.5</text></g><g transform="matrix(1,0,0,1,0,0)"><text x="44" y="133.87" style="fill: rgb(102,102,102); font-family: Lucida Sans; font-size: 11px; font-weight: bold; " text-rendering="auto" clip-path="url(#clip-0)">3.0</text></g><g transform="matrix(1,0,0,1,0,0)"><text x="44" y="110.21" style="fill: rgb(102,102,102); font-family: Lucida Sans; font-size: 11px; font-weight: bold; " text-rendering="auto" clip-path="url(#clip-0)">3.5</text></g><g transform="matrix(1,0,0,1,0,0)"><text x="44" y="86.55" style="fill: rgb(102,102,102); font-family: Lucida Sans; font-size: 11px; font-weight: bold; " text-rendering="auto" clip-path="url(#clip-0)">4.0</text></g><g style="fill: rgb(77,117,158);fill-opacity: 1; stroke: none" transform="matrix(0,-1,1,0,-318.5,363.5)" clip-path="url(#clip-8)"><path d="M 0.36 347.34 L 0.36 336.49 L 2.61 336.49 L 2.61 347.34 L 0.36 347.34 M 0.36 347.34 M 5.36 347.34 L 5.36 339.29 L 7.52 339.29 L 7.52 340.8 Q 8.58 339.12 10.27 339.12 Q 11.34 339.12 11.96 339.8 Q 12.58 340.48 12.58 341.65 L 12.58 347.34 L 10.42 347.34 L 10.42 342.18 Q 10.42 340.82 9.52 340.82 Q 8.47 340.82 7.52 342.27 L 7.52 347.34 L 5.36 347.34 M 5.36 347.34 M 20.42 347.34 L 20.42 345.82 Q 19.58 347.52 17.78 347.52 Q 16.34 347.52 15.52 346.46 Q 14.69 345.4 14.69 343.54 Q 14.69 341.51 15.62 340.31 Q 16.55 339.12 18.12 339.12 Q 19.39 339.12 20.42 340.1 L 20.42 335.77 L 22.59 335.77 L 22.59 347.34 L 20.42 347.34 M 20.42 347.34 M 20.42 341.4 Q 19.62 340.52 18.73 340.52 Q 17.94 340.52 17.46 341.29 Q 16.98 342.05 16.98 343.35 Q 16.98 345.82 18.58 345.82 Q 19.53 345.82 20.42 344.59 L 20.42 341.4 M 20.42 341.4 M 25.36 347.34 L 25.36 339.29 L 27.52 339.29 L 27.52 347.34 L 25.36 347.34 M 25.36 347.34 M 25.36 337.95 L 25.36 336.13 L 27.52 336.13 L 27.52 337.95 L 25.36 337.95 M 25.36 337.95 M 36.28 347.16 Q 34.94 347.52 33.8 347.52 Q 31.86 347.52 30.74 346.39 Q 29.62 345.26 29.62 343.3 Q 29.62 341.34 30.78 340.23 Q 31.94 339.12 33.95 339.12 Q 34.94 339.12 36.22 339.43 L 36.22 340.99 Q 34.89 340.55 34.09 340.55 Q 33.11 340.55 32.52 341.3 Q 31.94 342.05 31.94 343.29 Q 31.94 344.55 32.58 345.32 Q 33.22 346.09 34.28 346.09 Q 35.25 346.09 36.28 345.66 L 36.28 347.16 M 36.28 347.16 M 44.91 347.07 Q 43.36 347.52 41.97 347.52 Q 39.95 347.52 38.79 346.38 Q 37.62 345.23 37.62 343.26 Q 37.62 341.38 38.7 340.25 Q 39.77 339.12 41.52 339.12 Q 43.28 339.12 44.09 340.23 Q 44.91 341.34 44.91 343.74 L 39.92 343.74 Q 40.14 346.04 42.44 346.04 Q 43.53 346.04 44.91 345.54 L 44.91 347.07 M 44.91 347.07 M 39.89 342.52 L 42.77 342.52 Q 42.77 340.46 41.45 340.46 Q 40.09 340.46 39.89 342.52 M 39.89 342.52"/></g><line x1="67" y1="602.49" x2="1027" y2="602.49" style="stroke-width: 1.0;stroke: rgb(192,192,192);stroke-opacity: 1;" transform="matrix(1,0,0,1,0,0)" clip-path="url(#clip-9)"/><line x1="67" y1="578.82" x2="1027" y2="578.82" style="stroke-width: 1.0;stroke: rgb(192,192,192);stroke-opacity: 1;" transform="matrix(1,0,0,1,0,0)" clip-path="url(#clip-9)"/><line x1="67" y1="555.16" x2="1027" y2="555.16" style="stroke-width: 1.0;stroke: rgb(192,192,192);stroke-opacity: 1;" transform="matrix(1,0,0,1,0,0)" clip-path="url(#clip-9)"/><line x1="67" y1="531.49" x2="1027" y2="531.49" style="stroke-width: 1.0;stroke: rgb(192,192,192);stroke-opacity: 1;" transform="matrix(1,0,0,1,0,0)" clip-path="url(#clip-9)"/><line x1="67" y1="507.83" x2="1027" y2="507.83" style="stroke-width: 1.0;stroke: rgb(192,192,192);stroke-opacity: 1;" transform="matrix(1,0,0,1,0,0)" clip-path="url(#clip-9)"/><line x1="67" y1="484.16" x2="1027" y2="484.16" style="stroke-width: 1.0;stroke: rgb(192,192,192);stroke-opacity: 1;" transform="matrix(1,0,0,1,0,0)" clip-path="url(#clip-9)"/><line x1="67" y1="460.5" x2="1027" y2="460.5" style="stroke-width: 1.0;stroke: rgb(192,192,192);stroke-opacity: 1;" transform="matrix(1,0,0,1,0,0)" clip-path="url(#clip-9)"/><line x1="67" y1="436.83" x2="1027" y2="436.83" style="stroke-width: 1.0;stroke: rgb(192,192,192);stroke-opacity: 1;" transform="matrix(1,0,0,1,0,0)" clip-path="url(#clip-9)"/><line x1="67" y1="413.17" x2="1027" y2="413.17" style="stroke-width: 1.0;stroke: rgb(192,192,192);stroke-opacity: 1;" transform="matrix(1,0,0,1,0,0)" clip-path="url(#clip-9)"/><line x1="67" y1="389.51" x2="1027" y2="389.51" style="stroke-width: 1.0;stroke: rgb(192,192,192);stroke-opacity: 1;" transform="matrix(1,0,0,1,0,0)" clip-path="url(#clip-9)"/><line x1="67" y1="365.84" x2="1027" y2="365.84" style="stroke-width: 1.0;stroke: rgb(192,192,192);stroke-opacity: 1;" transform="matrix(1,0,0,1,0,0)" clip-path="url(#clip-9)"/><line x1="67" y1="342.18" x2="1027" y2="342.18" style="stroke-width: 1.0;stroke: rgb(192,192,192);stroke-opacity: 1;" transform="matrix(1,0,0,1,0,0)" clip-path="url(#clip-9)"/><line x1="67" y1="318.51" x2="1027" y2="318.51" style="stroke-width: 1.0;stroke: rgb(192,192,192);stroke-opacity: 1;" transform="matrix(1,0,0,1,0,0)" clip-path="url(#clip-9)"/><line x1="67" y1="294.85" x2="1027" y2="294.85" style="stroke-width: 1.0;stroke: rgb(192,192,192);stroke-opacity: 1;" transform="matrix(1,0,0,1,0,0)" clip-path="url(#clip-9)"/><line x1="67" y1="247.52" x2="1027" y2="247.52" style="stroke-width: 1.0;stroke: rgb(192,192,192);stroke-opacity: 1;" transform="matrix(1,0,0,1,0,0)" clip-path="url(#clip-9)"/><line x1="67" y1="223.85" x2="1027" y2="223.85" style="stroke-width: 1.0;stroke: rgb(192,192,192);stroke-opacity: 1;" transform="matrix(1,0,0,1,0,0)" clip-path="url(#clip-9)"/><line x1="67" y1="200.19" x2="1027" y2="200.19" style="stroke-width: 1.0;stroke: rgb(192,192,192);stroke-opacity: 1;" transform="matrix(1,0,0,1,0,0)" clip-path="url(#clip-9)"/><line x1="67" y1="176.52" x2="1027" y2="176.52" style="stroke-width: 1.0;stroke: rgb(192,192,192);stroke-opacity: 1;" transform="matrix(1,0,0,1,0,0)" clip-path="url(#clip-9)"/><line x1="67" y1="152.86" x2="1027" y2="152.86" style="stroke-width: 1.0;stroke: rgb(192,192,192);stroke-opacity: 1;" transform="matrix(1,0,0,1,0,0)" clip-path="url(#clip-9)"/><line x1="67" y1="129.2" x2="1027" y2="129.2" style="stroke-width: 1.0;stroke: rgb(192,192,192);stroke-opacity: 1;" transform="matrix(1,0,0,1,0,0)" clip-path="url(#clip-9)"/><line x1="67" y1="105.53" x2="1027" y2="105.53" style="stroke-width: 1.0;stroke: rgb(192,192,192);stroke-opacity: 1;" transform="matrix(1,0,0,1,0,0)" clip-path="url(#clip-9)"/><line x1="67" y1="81.87" x2="1027" y2="81.87" style="stroke-width: 1.0;stroke: rgb(192,192,192);stroke-opacity: 1;" transform="matrix(1,0,0,1,0,0)" clip-path="url(#clip-9)"/><line x1="67" y1="271.18" x2="1027" y2="271.18" style="stroke-width: 0.5;stroke: rgb(134,145,156);stroke-opacity: 1;" transform="matrix(1,0,0,1,0,0)" clip-path="url(#clip-9)"/><rect x="135.57" y="123.03" width="48" height="148.15" style="fill: rgb(0,0,255);fill-opacity: 1" transform="matrix(1,0,0,1,0,0)" clip-path="url(#clip-9)"/><rect x="272.71" y="271.18" width="48" height="104.34" style="fill: rgb(0,0,255);fill-opacity: 1" transform="matrix(1,0,0,1,0,0)" clip-path="url(#clip-9)"/><rect x="409.86" y="271.18" width="48" height="341.64" style="fill: rgb(0,0,255);fill-opacity: 1" transform="matrix(1,0,0,1,0,0)" clip-path="url(#clip-9)"/><rect x="547" y="271.18" width="48" height="39.09" style="fill: rgb(0,0,255);fill-opacity: 1" transform="matrix(1,0,0,1,0,0)" clip-path="url(#clip-9)"/><rect x="684.14" y="69.18" width="48" height="202" style="fill: rgb(0,0,255);fill-opacity: 1" transform="matrix(1,0,0,1,0,0)" clip-path="url(#clip-9)"/><rect x="821.29" y="271.18" width="48" height="83.8" style="fill: rgb(0,0,255);fill-opacity: 1" transform="matrix(1,0,0,1,0,0)" clip-path="url(#clip-9)"/><rect x="958.43" y="271.18" width="48" height="26.15" style="fill: rgb(0,0,255);fill-opacity: 1" transform="matrix(1,0,0,1,0,0)" clip-path="url(#clip-9)"/><rect x="87.57" y="245.4" width="48" height="25.78" style="fill: rgb(255,0,0);fill-opacity: 1" transform="matrix(1,0,0,1,0,0)" clip-path="url(#clip-9)"/><rect x="224.71" y="271.18" width="48" height="61.52" style="fill: rgb(255,0,0);fill-opacity: 1" transform="matrix(1,0,0,1,0,0)" clip-path="url(#clip-9)"/><rect x="361.86" y="121.29" width="48" height="149.89" style="fill: rgb(255,0,0);fill-opacity: 1" transform="matrix(1,0,0,1,0,0)" clip-path="url(#clip-9)"/><rect x="499" y="240.53" width="48" height="30.65" style="fill: rgb(255,0,0);fill-opacity: 1" transform="matrix(1,0,0,1,0,0)" clip-path="url(#clip-9)"/><rect x="636.14" y="271.18" width="48" height="28.44" style="fill: rgb(255,0,0);fill-opacity: 1" transform="matrix(1,0,0,1,0,0)" clip-path="url(#clip-9)"/><rect x="773.29" y="271.18" width="48" height="38.61" style="fill: rgb(255,0,0);fill-opacity: 1" transform="matrix(1,0,0,1,0,0)" clip-path="url(#clip-9)"/><rect x="910.43" y="271.18" width="48" height="28.72" style="fill: rgb(255,0,0);fill-opacity: 1" transform="matrix(1,0,0,1,0,0)" clip-path="url(#clip-9)"/><line x1="67" y1="176.52" x2="1027" y2="176.52" style="stroke-width: 0.5;stroke: rgb(255,0,0);stroke-opacity: 1;" transform="matrix(1,0,0,1,0,0)" clip-path="url(#clip-9)"/><rect x="965" y="162.92" width="59" height="11" style="fill: rgb(100,100,100);fill-opacity: 0.392157" transform="matrix(1,0,0,1,0,0)" clip-path="url(#clip-9)"/><g transform="matrix(1,0,0,1,0,0)"><text x="965" y="171.63" style="fill: rgb(0,0,0); font-family: sans-serif; font-size: 9px; " text-rendering="auto" clip-path="url(#clip-9)">Banalité : 2.0</text></g><line x1="67" y1="365.84" x2="1027" y2="365.84" style="stroke-width: 0.5;stroke: rgb(255,0,0);stroke-opacity: 1;" transform="matrix(1,0,0,1,0,0)" clip-path="url(#clip-9)"/><rect x="960" y="352.24" width="64" height="11" style="fill: rgb(100,100,100);fill-opacity: 0.392157" transform="matrix(1,0,0,1,0,0)" clip-path="url(#clip-9)"/><g transform="matrix(1,0,0,1,0,0)"><text x="960" y="360.94" style="fill: rgb(0,0,0); font-family: sans-serif; font-size: 9px; " text-rendering="auto" clip-path="url(#clip-9)">Banalité : -2.0</text></g></svg>
